<svg width="32" height="32" viewBox="0 0 32 32" fill="none" xmlns="http://www.w3.org/2000/svg">
<g id="icons">
<g id="vuesax/linear/category-2">
<g id="category-2">
<path id="Vector (Stroke)" fill-rule="evenodd" clip-rule="evenodd" d="M18.9594 2.95952C19.8797 2.03917 21.179 1.66663 22.6665 1.66663H25.3332C26.8206 1.66663 28.1199 2.03917 29.0403 2.95952C29.9606 3.87987 30.3332 5.17915 30.3332 6.66663V9.33329C30.3332 10.8208 29.9606 12.1201 29.0403 13.0404C28.1199 13.9607 26.8206 14.3333 25.3332 14.3333H22.6665C21.179 14.3333 19.8797 13.9607 18.9594 13.0404C18.0391 12.1201 17.6665 10.8208 17.6665 9.33329V6.66663C17.6665 5.17915 18.0391 3.87987 18.9594 2.95952ZM20.3736 4.37373C19.9606 4.78672 19.6665 5.48744 19.6665 6.66663V9.33329C19.6665 10.5125 19.9606 11.2132 20.3736 11.6262C20.7866 12.0392 21.4873 12.3333 22.6665 12.3333H25.3332C26.5124 12.3333 27.2131 12.0392 27.6261 11.6262C28.0391 11.2132 28.3332 10.5125 28.3332 9.33329V6.66663C28.3332 5.48744 28.0391 4.78672 27.6261 4.37373C27.2131 3.96075 26.5124 3.66663 25.3332 3.66663H22.6665C21.4873 3.66663 20.7866 3.96075 20.3736 4.37373Z" fill="white"/>
<path id="Vector (Stroke)_2" fill-rule="evenodd" clip-rule="evenodd" d="M2.9594 18.9595C3.87974 18.0392 5.17903 17.6666 6.6665 17.6666H9.33317C10.8206 17.6666 12.1199 18.0392 13.0403 18.9595C13.9606 19.8799 14.3332 21.1791 14.3332 22.6666V25.3333C14.3332 26.8208 13.9606 28.1201 13.0403 29.0404C12.1199 29.9607 10.8206 30.3333 9.33317 30.3333H6.6665C5.17903 30.3333 3.87974 29.9607 2.9594 29.0404C2.03905 28.1201 1.6665 26.8208 1.6665 25.3333V22.6666C1.6665 21.1791 2.03905 19.8799 2.9594 18.9595ZM4.37361 20.3737C3.96062 20.7867 3.6665 21.4874 3.6665 22.6666V25.3333C3.6665 26.5125 3.96062 27.2132 4.37361 27.6262C4.7866 28.0392 5.48731 28.3333 6.6665 28.3333H9.33317C10.5124 28.3333 11.2131 28.0392 11.6261 27.6262C12.0391 27.2132 12.3332 26.5125 12.3332 25.3333V22.6666C12.3332 21.4874 12.0391 20.7867 11.6261 20.3737C11.2131 19.9607 10.5124 19.6666 9.33317 19.6666H6.6665C5.48731 19.6666 4.7866 19.9607 4.37361 20.3737Z" fill="white"/>
<path id="Vector (Stroke)_3" fill-rule="evenodd" clip-rule="evenodd" d="M7.99984 3.66663C5.6066 3.66663 3.6665 5.60673 3.6665 7.99996C3.6665 10.3932 5.6066 12.3333 7.99984 12.3333C10.3931 12.3333 12.3332 10.3932 12.3332 7.99996C12.3332 5.60673 10.3931 3.66663 7.99984 3.66663ZM1.6665 7.99996C1.6665 4.50216 4.50203 1.66663 7.99984 1.66663C11.4976 1.66663 14.3332 4.50216 14.3332 7.99996C14.3332 11.4978 11.4976 14.3333 7.99984 14.3333C4.50203 14.3333 1.6665 11.4978 1.6665 7.99996Z" fill="white"/>
<path id="Vector (Stroke)_4" fill-rule="evenodd" clip-rule="evenodd" d="M23.9998 19.6666C21.6066 19.6666 19.6665 21.6067 19.6665 24C19.6665 26.3932 21.6066 28.3333 23.9998 28.3333C26.3931 28.3333 28.3332 26.3932 28.3332 24C28.3332 21.6067 26.3931 19.6666 23.9998 19.6666ZM17.6665 24C17.6665 20.5022 20.502 17.6666 23.9998 17.6666C27.4976 17.6666 30.3332 20.5022 30.3332 24C30.3332 27.4978 27.4976 30.3333 23.9998 30.3333C20.502 30.3333 17.6665 27.4978 17.6665 24Z" fill="white"/>
</g>
</g>
</g>
</svg>
