<svg width="40" height="40" viewBox="0 0 40 40" fill="none" xmlns="http://www.w3.org/2000/svg">
<g id="vuesax/linear/category-2">
<g id="category-2">
<path id="Vector (Stroke)" fill-rule="evenodd" clip-rule="evenodd" d="M30.0832 12.1173C31.2868 12.0438 32.3816 12.613 33.3568 13.5745L35.1052 15.2983C36.0805 16.2598 36.6894 17.3703 36.6927 18.6337C36.6959 19.897 36.0929 21.0816 35.123 22.162L33.384 24.0988C32.414 25.1792 31.3225 25.8821 30.1189 25.9557C28.9153 26.0292 27.8205 25.4599 26.8453 24.4984L25.0969 22.7747C24.1216 21.8131 23.5127 20.7027 23.5094 19.4393C23.5062 18.1759 24.1092 16.9914 25.0792 15.911L26.8181 13.9741C27.7881 12.8937 28.8796 12.1909 30.0832 12.1173ZM30.0882 14.0586C29.5481 14.0916 28.8983 14.4105 28.1294 15.2669L26.3905 17.2038C25.6215 18.0603 25.3574 18.7594 25.3589 19.3263C25.3603 19.8932 25.628 20.5598 26.4011 21.322L28.1495 23.0458C28.9226 23.808 29.5738 24.0473 30.1139 24.0143C30.654 23.9813 31.3038 23.6625 32.0727 22.806L33.8117 20.8691C34.5806 20.0127 34.8447 19.3136 34.8432 18.7467C34.8418 18.1798 34.5742 17.5132 33.801 16.7509L32.0526 15.0272C31.2795 14.265 30.6283 14.0256 30.0882 14.0586Z" fill="black"/>
<path id="Vector (Stroke)_2" fill-rule="evenodd" clip-rule="evenodd" d="M9.15937 13.396C10.3629 13.3224 11.4578 13.8917 12.433 14.8532L14.1814 16.577C15.1567 17.5385 15.7656 18.649 15.7689 19.9123C15.7721 21.1757 15.1691 22.3603 14.1991 23.4406L12.4602 25.3775C11.4902 26.4579 10.3987 27.1608 9.1951 27.2343C7.99151 27.3079 6.89671 26.7386 5.92145 25.7771L4.17306 24.0534C3.1978 23.0918 2.58887 21.9814 2.58561 20.718C2.58235 19.4546 3.18535 18.2701 4.15534 17.1897L5.89428 15.2528C6.86426 14.1724 7.95579 13.4695 9.15937 13.396ZM9.16438 15.3373C8.6243 15.3703 7.97452 15.6892 7.20557 16.5456L5.46663 18.4825C4.69768 19.339 4.43358 20.038 4.43504 20.605C4.43651 21.1719 4.70413 21.8385 5.47726 22.6007L7.22565 24.3245C7.99878 25.0867 8.65 25.326 9.19008 25.293C9.73017 25.26 10.3799 24.9412 11.1489 24.0847L12.8878 22.1478C13.6568 21.2914 13.9209 20.5923 13.9194 20.0254C13.918 19.4584 13.6503 18.7919 12.8772 18.0296L11.1288 16.3059C10.3557 15.5436 9.70446 15.3043 9.16438 15.3373Z" fill="black"/>
<path id="Vector (Stroke)_3" fill-rule="evenodd" clip-rule="evenodd" d="M22.4366 5.54656C20.8675 3.99956 18.3303 4.15461 16.7697 5.89287C15.2091 7.63114 15.2159 10.2944 16.7851 11.8414C18.3542 13.3884 20.8913 13.2333 22.452 11.4951C24.0126 9.7568 24.0057 7.09357 22.4366 5.54656ZM15.4584 4.60006C17.7393 2.05952 21.4475 1.83291 23.7408 4.09391C26.0341 6.35492 26.0442 10.2473 23.7632 12.7879C21.4823 15.3284 17.7742 15.555 15.4808 13.294C13.1875 11.033 13.1775 7.1406 15.4584 4.60006Z" fill="black"/>
<path id="Vector (Stroke)_4" fill-rule="evenodd" clip-rule="evenodd" d="M22.4932 27.5103C20.9241 25.9633 18.387 26.1183 16.8263 27.8566C15.2657 29.5948 15.2726 32.2581 16.8417 33.8051C18.4108 35.3521 20.948 35.197 22.5086 33.4588C24.0692 31.7205 24.0624 29.0573 22.4932 27.5103ZM15.515 26.5638C17.796 24.0232 21.5041 23.7966 23.7974 26.0576C26.0908 28.3186 26.1008 32.211 23.8199 34.7516C21.539 37.2921 17.8308 37.5187 15.5375 35.2577C13.2442 32.9967 13.2341 29.1043 15.515 26.5638Z" fill="black"/>
</g>
</g>
</svg>
