<svg width="32" height="32" viewBox="0 0 32 32" fill="none" xmlns="http://www.w3.org/2000/svg">
<g id="icons">
<g id="vuesax/linear/layer">
<g id="layer">
<path id="Vector (Stroke)" fill-rule="evenodd" clip-rule="evenodd" d="M15.7202 4.59334C15.2242 4.59334 14.7835 4.68006 14.5022 4.80602L14.4994 4.80728L6.6305 8.30159C5.59762 8.75727 5.52686 9.16954 5.52686 9.21334C5.52686 9.25713 5.59762 9.66941 6.6305 10.1251L6.63271 10.1261L14.5022 13.6206C14.7835 13.7466 15.2242 13.8333 15.7202 13.8333C16.2162 13.8333 16.6569 13.7466 16.9382 13.6207L16.941 13.6194L24.8077 10.1261L24.8099 10.1251C25.8428 9.66941 25.9135 9.25713 25.9135 9.21334C25.9135 9.16954 25.8428 8.75727 24.8099 8.30159L16.941 4.80728L16.9382 4.80602C16.6569 4.68006 16.2162 4.59334 15.7202 4.59334ZM17.754 2.97999C17.1423 2.70643 16.4036 2.59334 15.7202 2.59334C15.0367 2.59334 14.2981 2.70643 13.6863 2.97999C13.6859 2.98021 13.6854 2.98043 13.6849 2.98065L5.82322 6.47175C5.82286 6.47191 5.82357 6.4716 5.82322 6.47175C4.58987 7.01613 3.52686 7.93083 3.52686 9.21334C3.52686 10.4958 4.58874 11.41 5.82203 11.9544C5.82163 11.9542 5.82242 11.9546 5.82203 11.9544L13.6849 15.446C13.6854 15.4463 13.686 15.4465 13.6866 15.4468C14.2982 15.7203 15.0368 15.8333 15.7202 15.8333C16.4036 15.8333 17.1422 15.7203 17.7539 15.4467C17.7544 15.4465 17.755 15.4463 17.7555 15.446L25.6172 11.9549C25.6168 11.9551 25.6175 11.9548 25.6172 11.9549C26.8505 11.4105 27.9135 10.4958 27.9135 9.21334C27.9135 7.93079 26.8515 7.01653 25.6181 6.47216C25.6178 6.47203 25.6184 6.4723 25.6181 6.47216L17.7555 2.98065C17.755 2.98043 17.7545 2.98021 17.754 2.97999Z" fill="#F1F1F1"/>
<path id="Vector (Stroke)_2" fill-rule="evenodd" clip-rule="evenodd" d="M4 13.6667C4.55228 13.6667 5 14.1144 5 14.6667C5 14.9912 5.12838 15.4079 5.38653 15.8046C5.64467 16.2014 5.97342 16.4873 6.2706 16.6185L6.27306 16.6196L15.3245 20.6455C15.3242 20.6453 15.3248 20.6456 15.3245 20.6455C15.7625 20.8389 16.2531 20.8359 16.6689 20.6484L16.6736 20.6463L25.7269 16.6196L25.7294 16.6185C26.0266 16.4873 26.3553 16.2014 26.6135 15.8046C26.8716 15.4079 27 14.9912 27 14.6667C27 14.1144 27.4477 13.6667 28 13.6667C28.5523 13.6667 29 14.1144 29 14.6667C29 15.4621 28.7084 16.2521 28.2899 16.8954C27.8716 17.5383 27.2674 18.1254 26.5384 18.4476C26.538 18.4478 26.5388 18.4475 26.5384 18.4476L17.4911 22.4716C17.4902 22.472 17.4893 22.4724 17.4885 22.4728C16.5452 22.8973 15.463 22.8936 14.5155 22.4745L5.46273 18.4481C5.46228 18.4479 5.46182 18.4477 5.46137 18.4475C4.73249 18.1253 4.1284 17.5382 3.71014 16.8954C3.29162 16.2521 3 15.4621 3 14.6667C3 14.1144 3.44772 13.6667 4 13.6667Z" fill="#F1F1F1"/>
<path id="Vector (Stroke)_3" fill-rule="evenodd" clip-rule="evenodd" d="M4 20.3333C4.55228 20.3333 5 20.7811 5 21.3333C5 22.1744 5.49726 22.9391 6.27405 23.2868C6.2738 23.2866 6.2743 23.2869 6.27405 23.2868L15.3245 27.3121C15.3242 27.312 15.3248 27.3123 15.3245 27.3121C15.7625 27.5055 16.2531 27.5026 16.6689 27.3151L16.6736 27.313L25.7252 23.2871C25.7249 23.2872 25.7255 23.287 25.7252 23.2871C26.5019 22.9395 27 22.1744 27 21.3333C27 20.7811 27.4477 20.3333 28 20.3333C28.5523 20.3333 29 20.7811 29 21.3333C29 22.972 28.0309 24.4471 26.5415 25.1129L26.5397 25.1137L17.4911 29.1383C17.4902 29.1387 17.4893 29.1391 17.4885 29.1395C16.5452 29.5639 15.463 29.5603 14.5155 29.1412L5.45854 25.1129C3.96908 24.4471 3 22.972 3 21.3333C3 20.7811 3.44772 20.3333 4 20.3333Z" fill="#F1F1F1"/>
</g>
</g>
</g>
</svg>
