<svg width="26" height="27" viewBox="0 0 26 27" fill="none" xmlns="http://www.w3.org/2000/svg">
<g id="vuesax/linear/layer">
<g id="layer">
<path id="Vector (Stroke)" fill-rule="evenodd" clip-rule="evenodd" d="M12.7202 2C12.2242 2 11.7835 2.08672 11.5022 2.21268L11.4994 2.21394L3.6305 5.70825C2.59762 6.16393 2.52686 6.5762 2.52686 6.62C2.52686 6.66379 2.59762 7.07607 3.6305 7.53175L3.63271 7.53272L11.5022 11.0273C11.7835 11.1533 12.2242 11.24 12.7202 11.24C13.2162 11.24 13.6569 11.1533 13.9382 11.0273L13.941 11.0261L21.8077 7.53273L21.8099 7.53175C22.8428 7.07607 22.9135 6.66379 22.9135 6.62C22.9135 6.5762 22.8428 6.16393 21.8099 5.70825L13.941 2.21394L13.9382 2.21268C13.6569 2.08672 13.2162 2 12.7202 2ZM14.754 0.386647C14.1423 0.113095 13.4036 0 12.7202 0C12.0367 0 11.2981 0.113095 10.6863 0.386647C10.6859 0.38687 10.6854 0.387093 10.6849 0.387315L2.82322 3.87841C2.82286 3.87857 2.82357 3.87826 2.82322 3.87841C1.58987 4.42279 0.526855 5.3375 0.526855 6.62C0.526855 7.90246 1.58874 8.81668 2.82203 9.36106C2.82163 9.36088 2.82242 9.36123 2.82203 9.36106L10.6849 12.8527C10.6854 12.8529 10.686 12.8532 10.6866 12.8534C11.2982 13.1269 12.0368 13.24 12.7202 13.24C13.4036 13.24 14.1422 13.1269 14.7539 12.8534C14.7544 12.8532 14.755 12.8529 14.7555 12.8527L22.6172 9.36158C22.6168 9.36174 22.6175 9.36143 22.6172 9.36158C23.8505 8.81721 24.9135 7.90251 24.9135 6.62C24.9135 5.33745 23.8515 4.42319 22.6181 3.87882C22.6178 3.87869 22.6184 3.87896 22.6181 3.87882L14.7555 0.387315C14.755 0.387093 14.7545 0.38687 14.754 0.386647Z" fill="black"/>
<path id="Vector (Stroke)_2" fill-rule="evenodd" clip-rule="evenodd" d="M1 11.0734C1.55228 11.0734 2 11.5211 2 12.0734C2 12.3979 2.12838 12.8146 2.38653 13.2113C2.64467 13.6081 2.97342 13.894 3.2706 14.0252L3.27306 14.0263L12.3245 18.0522C12.3242 18.052 12.3248 18.0523 12.3245 18.0522C12.7625 18.2456 13.2531 18.2426 13.6689 18.0551L13.6736 18.053L22.7269 14.0263L22.7294 14.0252C23.0266 13.894 23.3553 13.6081 23.6135 13.2113C23.8716 12.8146 24 12.3979 24 12.0734C24 11.5211 24.4477 11.0734 25 11.0734C25.5523 11.0734 26 11.5211 26 12.0734C26 12.8688 25.7084 13.6588 25.2899 14.3021C24.8716 14.945 24.2674 15.5321 23.5384 15.8543C23.538 15.8545 23.5388 15.8542 23.5384 15.8543L14.4911 19.8783C14.4902 19.8787 14.4893 19.8791 14.4885 19.8795C13.5452 20.304 12.463 20.3003 11.5155 19.8812L2.46273 15.8548C2.46228 15.8546 2.46182 15.8544 2.46137 15.8542C1.73249 15.532 1.1284 14.9449 0.710135 14.3021C0.291622 13.6588 0 12.8688 0 12.0734C0 11.5211 0.447715 11.0734 1 11.0734Z" fill="black"/>
<path id="Vector (Stroke)_3" fill-rule="evenodd" clip-rule="evenodd" d="M1 17.74C1.55228 17.74 2 18.1877 2 18.74C2 19.581 2.49726 20.3458 3.27405 20.6934C3.2738 20.6933 3.2743 20.6935 3.27405 20.6934L12.3245 24.7188C12.3242 24.7186 12.3248 24.7189 12.3245 24.7188C12.7625 24.9122 13.2531 24.9093 13.6689 24.7217L13.6736 24.7196L22.7252 20.6937C22.7249 20.6939 22.7255 20.6936 22.7252 20.6937C23.5019 20.3461 24 19.581 24 18.74C24 18.1877 24.4477 17.74 25 17.74C25.5523 17.74 26 18.1877 26 18.74C26 20.3787 25.0309 21.8537 23.5415 22.5196L23.5397 22.5204L14.4911 26.5449C14.4902 26.5453 14.4893 26.5457 14.4885 26.5461C13.5452 26.9706 12.463 26.967 11.5155 26.5479L2.45854 22.5196C0.969082 21.8537 0 20.3787 0 18.74C0 18.1877 0.447715 17.74 1 17.74Z" fill="black"/>
</g>
</g>
</svg>
