<svg width="32" height="32" viewBox="0 0 32 32" fill="none" xmlns="http://www.w3.org/2000/svg">
<g id="icons">
<g id="vuesax/linear/data">
<g id="data">
<path id="Vector (Stroke)" fill-rule="evenodd" clip-rule="evenodd" d="M17.665 26.6676C17.665 25.7471 16.9188 25.0009 15.9984 25.0009C15.0779 25.0009 14.3317 25.7471 14.3317 26.6676C14.3317 27.5881 15.0779 28.3343 15.9984 28.3343C16.9188 28.3343 17.665 27.5881 17.665 26.6676ZM15.9984 23.0009C18.0234 23.0009 19.665 24.6426 19.665 26.6676C19.665 28.6927 18.0234 30.3343 15.9984 30.3343C13.9733 30.3343 12.3317 28.6927 12.3317 26.6676C12.3317 24.6426 13.9733 23.0009 15.9984 23.0009Z" fill="#F1F1F1"/>
<path id="Vector (Stroke)_2" fill-rule="evenodd" clip-rule="evenodd" d="M28.3315 26.6676C28.3315 25.7471 27.5854 25.0009 26.6649 25.0009C25.7444 25.0009 24.9982 25.7471 24.9982 26.6676C24.9982 27.5881 25.7444 28.3343 26.6649 28.3343C27.5854 28.3343 28.3315 27.5881 28.3315 26.6676ZM26.6649 23.0009C28.6899 23.0009 30.3315 24.6426 30.3315 26.6676C30.3315 28.6927 28.6899 30.3343 26.6649 30.3343C24.6398 30.3343 22.9982 28.6927 22.9982 26.6676C22.9982 24.6426 24.6398 23.0009 26.6649 23.0009Z" fill="#F1F1F1"/>
<path id="Vector (Stroke)_3" fill-rule="evenodd" clip-rule="evenodd" d="M6.99805 26.6676C6.99805 25.7471 6.25186 25.0009 5.33138 25.0009C4.41091 25.0009 3.66471 25.7471 3.66471 26.6676C3.66471 27.5881 4.41091 28.3343 5.33138 28.3343C6.25185 28.3343 6.99805 27.5881 6.99805 26.6676ZM5.33138 23.0009C7.35642 23.0009 8.99805 24.6426 8.99805 26.6676C8.99805 28.6927 7.35642 30.3343 5.33138 30.3343C3.30634 30.3343 1.66471 28.6927 1.66471 26.6676C1.66471 24.6426 3.30634 23.0009 5.33138 23.0009Z" fill="#F1F1F1"/>
<path id="Vector (Stroke)_4" fill-rule="evenodd" clip-rule="evenodd" d="M17.665 5.33427C17.665 4.41379 16.9188 3.6676 15.9984 3.6676C15.0779 3.6676 14.3317 4.41379 14.3317 5.33427C14.3317 6.25474 15.0779 7.00094 15.9984 7.00094C16.9188 7.00094 17.665 6.25474 17.665 5.33427ZM15.9984 1.6676C18.0234 1.6676 19.665 3.30922 19.665 5.33427C19.665 7.35931 18.0234 9.00094 15.9984 9.00094C13.9733 9.00094 12.3317 7.35931 12.3317 5.33427C12.3317 3.30922 13.9733 1.6676 15.9984 1.6676Z" fill="#F1F1F1"/>
<path id="Vector (Stroke)_5" fill-rule="evenodd" clip-rule="evenodd" d="M15.998 7.00095C16.5503 7.00095 16.998 7.44866 16.998 8.00095L16.998 24.0009C16.998 24.5532 16.5503 25.0009 15.998 25.0009C15.4458 25.0009 14.998 24.5532 14.998 24.0009L14.998 8.00095C14.998 7.44866 15.4458 7.00095 15.998 7.00095Z" fill="#F1F1F1"/>
<path id="Vector (Stroke)_6" fill-rule="evenodd" clip-rule="evenodd" d="M26.3721 14.9605C27.2925 15.8808 27.665 17.1801 27.665 18.6676L27.665 24.0009C27.665 24.5532 27.2173 25.0009 26.665 25.0009C26.1128 25.0009 25.665 24.5532 25.665 24.0009L25.665 18.6676C25.665 17.4884 25.3709 16.7877 24.9579 16.3747C24.5449 15.9617 23.8442 15.6676 22.665 15.6676L9.33171 15.6676C8.15252 15.6676 7.4518 15.9617 7.03881 16.3747C6.62583 16.7877 6.33171 17.4884 6.33171 18.6676L6.33171 24.0009C6.33171 24.5532 5.88399 25.0009 5.33171 25.0009C4.77942 25.0009 4.33171 24.5532 4.33171 24.0009L4.33171 18.6676C4.33171 17.1801 4.70425 15.8808 5.6246 14.9605C6.54494 14.0401 7.84423 13.6676 9.33171 13.6676L22.665 13.6676C24.1525 13.6676 25.4518 14.0401 26.3721 14.9605Z" fill="#F1F1F1"/>
</g>
</g>
</g>
</svg>
