<svg width="32" height="32" viewBox="0 0 32 32" fill="none" xmlns="http://www.w3.org/2000/svg">
<g id="icons">
<g id="vuesax/linear/clock">
<g id="clock">
<path id="Vector (Stroke)" fill-rule="evenodd" clip-rule="evenodd" d="M15.9998 3.66666C9.19212 3.66666 3.6665 9.19228 3.6665 16C3.6665 22.8077 9.19212 28.3333 15.9998 28.3333C22.8076 28.3333 28.3332 22.8077 28.3332 16C28.3332 9.19228 22.8076 3.66666 15.9998 3.66666ZM1.6665 16C1.6665 8.08771 8.08755 1.66666 15.9998 1.66666C23.9121 1.66666 30.3332 8.08771 30.3332 16C30.3332 23.9123 23.9121 30.3333 15.9998 30.3333C8.08755 30.3333 1.6665 23.9123 1.6665 16Z" fill="#F1F1F1"/>
<path id="Vector (Stroke)_2" fill-rule="evenodd" clip-rule="evenodd" d="M15.5063 9.01334C16.0586 9.01334 16.5063 9.46105 16.5063 10.0133V15.48C16.5063 15.6847 16.5845 15.9815 16.7584 16.2863C16.9322 16.5912 17.1477 16.8093 17.3228 16.913L17.3255 16.9146L17.3255 16.9146L21.4588 19.3813C21.9331 19.6643 22.0881 20.2782 21.8051 20.7525C21.522 21.2267 20.9081 21.3817 20.4339 21.0987L16.3032 18.6336C16.3027 18.6334 16.3023 18.6331 16.3018 18.6328C15.7576 18.3099 15.3202 17.8017 15.021 17.2771C14.7215 16.7519 14.5063 16.1153 14.5063 15.48V10.0133C14.5063 9.46105 14.9541 9.01334 15.5063 9.01334Z" fill="#F1F1F1"/>
</g>
</g>
</g>
</svg>
