<svg width="32" height="32" viewBox="0 0 32 32" fill="none" xmlns="http://www.w3.org/2000/svg">
<g id="icons">
<g id="vuesax/linear/cpu-setting">
<g id="cpu-setting">
<path id="Vector (Stroke)" fill-rule="evenodd" clip-rule="evenodd" d="M6.35923 6.35954C7.83853 4.88025 10.0344 4.33331 12.7997 4.33331H19.1997C21.965 4.33331 24.1608 4.88025 25.6401 6.35954C27.1194 7.83883 27.6663 10.0347 27.6663 12.8C27.6663 13.3523 27.2186 13.8 26.6663 13.8C26.1141 13.8 25.6663 13.3523 25.6663 12.8C25.6663 10.2319 25.1466 8.69446 24.2259 7.77375C23.3052 6.85304 21.7677 6.33331 19.1997 6.33331H12.7997C10.2316 6.33331 8.69416 6.85304 7.77345 7.77375C6.85274 8.69446 6.33301 10.2319 6.33301 12.8V19.2C6.33301 21.768 6.85274 23.3055 7.77345 24.2262C8.69416 25.1469 10.2316 25.6666 12.7997 25.6666C13.352 25.6666 13.7997 26.1144 13.7997 26.6666C13.7997 27.2189 13.352 27.6666 12.7997 27.6666C10.0344 27.6666 7.83853 27.1197 6.35923 25.6404C4.87994 24.1611 4.33301 21.9653 4.33301 19.2V12.8C4.33301 10.0347 4.87994 7.83883 6.35923 6.35954Z" fill="#F1F1F1"/>
<path id="Vector (Stroke)_2" fill-rule="evenodd" clip-rule="evenodd" d="M9.70923 9.70954C10.7385 8.68025 12.2344 8.33331 13.9997 8.33331H17.9997C19.9465 8.33331 21.5667 8.75159 22.586 10.0488C22.9272 10.4831 22.8518 11.1118 22.4175 11.453C21.9832 11.7942 21.3546 11.7187 21.0134 11.2845C20.5659 10.715 19.7329 10.3333 17.9997 10.3333H13.9997C12.4316 10.3333 11.5942 10.653 11.1234 11.1238C10.6527 11.5945 10.333 12.4319 10.333 14V18C10.333 19.7334 10.715 20.5705 11.2763 21.018C11.7082 21.3623 11.7792 21.9914 11.435 22.4233C11.0907 22.8552 10.4616 22.9262 10.0297 22.582C8.75106 21.5628 8.33301 19.9465 8.33301 18V14C8.33301 12.2347 8.67994 10.7388 9.70923 9.70954Z" fill="#F1F1F1"/>
<path id="Vector (Stroke)_3" fill-rule="evenodd" clip-rule="evenodd" d="M10.6797 1.66666C11.232 1.66666 11.6797 2.11437 11.6797 2.66666V5.33332C11.6797 5.88561 11.232 6.33332 10.6797 6.33332C10.1274 6.33332 9.67969 5.88561 9.67969 5.33332V2.66666C9.67969 2.11437 10.1274 1.66666 10.6797 1.66666Z" fill="#F1F1F1"/>
<path id="Vector (Stroke)_4" fill-rule="evenodd" clip-rule="evenodd" d="M16 1.66666C16.5523 1.66666 17 2.11437 17 2.66666V5.33332C17 5.88561 16.5523 6.33332 16 6.33332C15.4477 6.33332 15 5.88561 15 5.33332V2.66666C15 2.11437 15.4477 1.66666 16 1.66666Z" fill="#F1F1F1"/>
<path id="Vector (Stroke)_5" fill-rule="evenodd" clip-rule="evenodd" d="M21.333 1.66666C21.8853 1.66666 22.333 2.11437 22.333 2.66666V5.33332C22.333 5.88561 21.8853 6.33332 21.333 6.33332C20.7807 6.33332 20.333 5.88561 20.333 5.33332V2.66666C20.333 2.11437 20.7807 1.66666 21.333 1.66666Z" fill="#F1F1F1"/>
<path id="Vector (Stroke)_6" fill-rule="evenodd" clip-rule="evenodd" d="M25.6665 10.6667C25.6665 10.1144 26.1142 9.66666 26.6665 9.66666H29.3332C29.8855 9.66666 30.3332 10.1144 30.3332 10.6667C30.3332 11.2189 29.8855 11.6667 29.3332 11.6667H26.6665C26.1142 11.6667 25.6665 11.2189 25.6665 10.6667Z" fill="#F1F1F1"/>
<path id="Vector (Stroke)_7" fill-rule="evenodd" clip-rule="evenodd" d="M10.6797 25.6667C11.232 25.6667 11.6797 26.1144 11.6797 26.6667V29.3333C11.6797 29.8856 11.232 30.3333 10.6797 30.3333C10.1274 30.3333 9.67969 29.8856 9.67969 29.3333V26.6667C9.67969 26.1144 10.1274 25.6667 10.6797 25.6667Z" fill="#F1F1F1"/>
<path id="Vector (Stroke)_8" fill-rule="evenodd" clip-rule="evenodd" d="M1.6665 10.6667C1.6665 10.1144 2.11422 9.66666 2.6665 9.66666H5.33317C5.88546 9.66666 6.33317 10.1144 6.33317 10.6667C6.33317 11.2189 5.88546 11.6667 5.33317 11.6667H2.6665C2.11422 11.6667 1.6665 11.2189 1.6665 10.6667Z" fill="#F1F1F1"/>
<path id="Vector (Stroke)_9" fill-rule="evenodd" clip-rule="evenodd" d="M1.6665 16C1.6665 15.4477 2.11422 15 2.6665 15H5.33317C5.88546 15 6.33317 15.4477 6.33317 16C6.33317 16.5523 5.88546 17 5.33317 17H2.6665C2.11422 17 1.6665 16.5523 1.6665 16Z" fill="#F1F1F1"/>
<path id="Vector (Stroke)_10" fill-rule="evenodd" clip-rule="evenodd" d="M1.6665 21.3333C1.6665 20.781 2.11422 20.3333 2.6665 20.3333H5.33317C5.88546 20.3333 6.33317 20.781 6.33317 21.3333C6.33317 21.8856 5.88546 22.3333 5.33317 22.3333H2.6665C2.11422 22.3333 1.6665 21.8856 1.6665 21.3333Z" fill="#F1F1F1"/>
<path id="Vector (Stroke)_11" fill-rule="evenodd" clip-rule="evenodd" d="M22.2797 21.5467C21.6611 21.5467 21.1597 22.0481 21.1597 22.6667C21.1597 23.2852 21.6611 23.7867 22.2797 23.7867C22.8982 23.7867 23.3997 23.2852 23.3997 22.6667C23.3997 22.0481 22.8982 21.5467 22.2797 21.5467ZM19.1597 22.6667C19.1597 20.9435 20.5565 19.5467 22.2797 19.5467C24.0028 19.5467 25.3997 20.9435 25.3997 22.6667C25.3997 24.3898 24.0028 25.7867 22.2797 25.7867C20.5565 25.7867 19.1597 24.3898 19.1597 22.6667Z" fill="#F1F1F1"/>
<path id="Vector (Stroke)_12" fill-rule="evenodd" clip-rule="evenodd" d="M20.1674 17.0982C20.1031 16.9901 19.9879 16.9818 19.9249 17.0193L19.9167 17.0242L18.6904 17.7383C18.5374 17.8244 18.4783 18.0315 18.5705 18.1895L18.5724 18.1927C18.9991 18.9306 19.1632 19.8321 18.7135 20.6137C18.2634 21.396 17.4007 21.7067 16.5467 21.7067C16.3657 21.7067 16.2134 21.859 16.2134 22.04V23.28C16.2134 23.4846 16.3717 23.6164 16.5285 23.6135L16.5467 23.6132C17.4007 23.6132 18.2634 23.924 18.7135 24.7063C19.1632 25.4879 18.9991 26.3894 18.5724 27.1273L18.5705 27.1305C18.484 27.2789 18.5263 27.4856 18.7035 27.5893C18.7033 27.5892 18.7036 27.5894 18.7035 27.5893L19.9116 28.2929C19.9984 28.341 20.1138 28.312 20.1674 28.2219L20.1692 28.2188L20.2454 28.0918C20.6718 27.3587 21.3681 26.77 22.2667 26.77C23.1653 26.77 23.8616 27.3587 24.288 28.0919L24.366 28.2218C24.4303 28.3299 24.5455 28.3383 24.6086 28.3007L24.6167 28.2958L25.8431 27.5817C25.996 27.4956 26.0551 27.2885 25.9629 27.1305L25.9611 27.1273C25.5343 26.3894 25.3703 25.4879 25.8199 24.7063C26.2701 23.924 27.1327 23.6133 27.9867 23.6133C28.1678 23.6133 28.32 23.461 28.32 23.28V22.04C28.32 21.859 28.1678 21.7067 27.9867 21.7067C27.1327 21.7067 26.2701 21.396 25.8199 20.6137C25.3703 19.8321 25.5343 18.9306 25.9611 18.1927L25.9629 18.1895C26.0495 18.0411 26.0071 17.8342 25.8297 17.7306C25.8296 17.7305 25.8298 17.7306 25.8297 17.7306L24.6219 17.0271C24.5351 16.979 24.4197 17.008 24.366 17.0982L24.3642 17.1012L24.288 17.2282C23.8616 17.9613 23.1653 18.55 22.2667 18.55C21.3681 18.55 20.6718 17.9613 20.2454 17.2282L20.1674 17.0982ZM21.885 16.0735C21.2831 15.0643 19.9622 14.6731 18.9066 15.2979L17.7024 15.9993C16.5817 16.635 16.1903 18.0759 16.8418 19.1952C16.9869 19.4466 16.9843 19.5752 16.9776 19.6149C16.9464 19.6406 16.8365 19.7067 16.5467 19.7067C15.2611 19.7067 14.2134 20.7544 14.2134 22.04V23.28C14.2134 24.565 15.2491 25.6309 16.5536 25.6133C16.8382 25.6144 16.9467 25.6796 16.9776 25.7051C16.9843 25.7448 16.9869 25.8733 16.8418 26.1247C16.1833 27.256 16.5944 28.6744 17.6962 29.3171L18.9101 30.0241L18.9172 30.0282C19.9496 30.6182 21.2719 30.2743 21.885 29.2465C21.8853 29.246 21.8857 29.2454 21.886 29.2448L21.9642 29.1145L21.9724 29.1006C22.1167 28.8511 22.2283 28.7878 22.2667 28.773C22.3052 28.7878 22.4167 28.8511 22.561 29.1006L22.6474 29.2448C22.6478 29.2454 22.6481 29.246 22.6484 29.2465C23.2503 30.2556 24.5712 30.6469 25.6268 30.0221L26.8311 29.3207C27.9517 28.685 28.3431 27.2441 27.6917 26.1248C27.5465 25.8734 27.5491 25.7448 27.5558 25.7051C27.587 25.6794 27.6969 25.6133 27.9867 25.6133C29.2723 25.6133 30.32 24.5656 30.32 23.28V22.04C30.32 20.7544 29.2723 19.7067 27.9867 19.7067C27.6969 19.7067 27.587 19.6406 27.5558 19.6149C27.5491 19.5752 27.5465 19.4466 27.6917 19.1951C28.35 18.0639 27.939 16.6456 26.8372 16.0029L25.6233 15.2959L25.6162 15.2918C24.5838 14.7018 23.2614 15.0457 22.6484 16.0735C22.6481 16.0741 22.6477 16.0746 22.6474 16.0752L22.5692 16.2055L22.561 16.2194C22.4167 16.4689 22.3052 16.5322 22.2667 16.547C22.2283 16.5322 22.1167 16.4689 21.9724 16.2194L21.886 16.0752C21.8857 16.0746 21.8853 16.0741 21.885 16.0735Z" fill="#F1F1F1"/>
</g>
</g>
</g>
</svg>
