<svg width="32" height="32" viewBox="0 0 32 32" fill="none" xmlns="http://www.w3.org/2000/svg">
<g id="icons">
<g id="vuesax/linear/setting-2">
<g id="setting-2">
<path id="Vector (Stroke)" fill-rule="evenodd" clip-rule="evenodd" d="M16 13C14.3431 13 13 14.3431 13 16C13 17.6569 14.3431 19 16 19C17.6569 19 19 17.6569 19 16C19 14.3431 17.6569 13 16 13ZM11 16C11 13.2386 13.2386 11 16 11C18.7614 11 21 13.2386 21 16C21 18.7614 18.7614 21 16 21C13.2386 21 11 18.7614 11 16Z" fill="#F1F1F1"/>
<path id="Vector (Stroke)_2" fill-rule="evenodd" clip-rule="evenodd" d="M12.8045 5.02689C12.4476 4.43229 11.696 4.24733 11.1378 4.5794L11.1233 4.58805L8.81652 5.90793C8.08669 6.32497 7.8349 7.27051 8.25237 7.99305L7.3865 8.49333L8.25168 7.99186C8.9651 9.2227 9.15689 10.5717 8.5196 11.6776C7.8824 12.7834 6.61956 13.2933 5.19984 13.2933C4.35554 13.2933 3.6665 13.9889 3.6665 14.8267V17.1733C3.6665 18.0111 4.35554 18.7067 5.19984 18.7067C6.61956 18.7067 7.8824 19.2166 8.5196 20.3224C9.15681 21.4281 8.96515 22.7769 8.25196 24.0076C7.83506 24.7301 8.08639 25.6748 8.81598 26.0917L11.1379 27.4205C11.696 27.7525 12.4475 27.5677 12.8044 26.9731L12.9477 26.7256C13.6609 25.4952 14.7359 24.6567 16.0115 24.6567C17.2881 24.6567 18.3598 25.4958 19.0664 26.7277C19.0668 26.7282 19.0671 26.7288 19.0674 26.7293L19.2085 26.9731C19.5654 27.5677 20.317 27.7527 20.8752 27.4206L20.8898 27.4119L23.1965 26.0921C23.9244 25.6761 24.18 24.7437 23.7595 24.005C23.0476 22.775 22.8567 21.4273 23.4934 20.3224C24.1306 19.2166 25.3935 18.7067 26.8132 18.7067C27.6575 18.7067 28.3465 18.0111 28.3465 17.1733V14.8267C28.3465 13.9824 27.651 13.2933 26.8132 13.2933C25.3935 13.2933 24.1306 12.7834 23.4934 11.6776C22.8562 10.572 23.0478 9.22323 23.7609 7.99258C24.178 7.27009 23.9267 6.32519 23.197 5.90824L20.8751 4.57952C20.317 4.24745 19.5654 4.43229 19.2085 5.02689L19.0653 5.27437C18.3521 6.50478 17.2771 7.34333 16.0015 7.34333C14.725 7.34333 13.6535 6.50431 12.9468 5.27271C12.9464 5.27203 12.946 5.27134 12.9456 5.27066L12.8045 5.02689ZM10.1231 2.85588C11.6691 1.94206 13.6299 2.5027 14.5259 4.0087L14.532 4.01892L14.6786 4.27229L14.6807 4.276C15.1741 5.13661 15.6887 5.34333 16.0015 5.34333C16.3158 5.34333 16.8343 5.13485 17.3344 4.27229C17.3343 4.27243 17.3345 4.27214 17.3344 4.27229L17.487 4.00867C18.383 2.50265 20.344 1.94206 21.8899 2.85589L24.1893 4.17175C25.8861 5.14137 26.4616 7.31615 25.4924 8.99361L25.4917 8.9948C24.9918 9.85729 25.0702 10.4082 25.2263 10.679C25.3824 10.95 25.8196 11.2933 26.8132 11.2933C28.7487 11.2933 30.3465 12.871 30.3465 14.8267V17.1733C30.3465 19.1089 28.7689 20.7067 26.8132 20.7067C25.8196 20.7067 25.3824 21.05 25.2263 21.321C25.0702 21.5917 24.9918 22.1427 25.4917 23.0052L25.4948 23.0105C26.459 24.698 25.8875 26.8575 24.1898 27.8279C24.1897 27.828 24.19 27.8278 24.1898 27.8279L21.8898 29.1442C20.3439 30.0579 18.3831 29.4973 17.4871 27.9913L17.481 27.9811L17.3344 27.7277L17.3323 27.724C16.8389 26.8634 16.3243 26.6567 16.0115 26.6567C15.6972 26.6567 15.1787 26.8651 14.6786 27.7277C14.6785 27.7278 14.6787 27.7276 14.6786 27.7277L14.526 27.9913C13.63 29.4973 11.6692 30.0579 10.1233 29.1442L7.8237 27.8282C7.82352 27.8281 7.82388 27.8283 7.8237 27.8282C6.12728 26.8585 5.55155 24.6837 6.52064 23.0064L6.52133 23.0052C7.02124 22.1427 6.94279 21.5917 6.78674 21.321C6.63061 21.05 6.19345 20.7067 5.19984 20.7067C3.24413 20.7067 1.6665 19.1089 1.6665 17.1733V14.8267C1.6665 12.8911 3.24413 11.2933 5.19984 11.2933C6.19345 11.2933 6.63061 10.95 6.78674 10.679C6.94279 10.4082 7.02124 9.85729 6.52133 8.9948L6.52064 8.99361C5.55155 7.31633 6.12674 5.14183 7.82316 4.17206L10.1231 2.85588Z" fill="#F1F1F1"/>
</g>
</g>
</g>
</svg>
