<svg width="27" height="27" viewBox="0 0 27 27" fill="none" xmlns="http://www.w3.org/2000/svg">
<g id="vuesax/linear/people">
<g id="people">
<g id="Group">
<path id="Vector (Stroke)" fill-rule="evenodd" clip-rule="evenodd" d="M20.6414 2.32291C19.414 2.32291 18.4302 3.30675 18.4302 4.53416C18.4302 5.71581 19.339 6.66816 20.4895 6.74277C20.586 6.73421 20.6848 6.73421 20.7813 6.74277C21.9298 6.66823 22.8425 5.71711 22.8527 4.53092C22.8509 3.31478 21.8655 2.32291 20.6414 2.32291ZM16.6177 4.53416C16.6177 2.30574 18.413 0.510406 20.6414 0.510406C22.8721 0.510406 24.6652 2.32011 24.6652 4.53416V4.54063H24.6651C24.6496 6.71433 22.9386 8.47922 20.783 8.55732C20.7337 8.5591 20.6843 8.55686 20.6354 8.55061C20.5865 8.55686 20.5371 8.5591 20.4878 8.55732C18.3333 8.47926 16.6177 6.71403 16.6177 4.53416Z" fill="black"/>
<path id="Vector (Stroke)_2" fill-rule="evenodd" clip-rule="evenodd" d="M19.313 9.69527C21.1501 9.37345 23.2448 9.68027 24.7675 10.6907L24.7692 10.6918C25.81 11.3857 26.4505 12.3912 26.4505 13.5121C26.4505 14.633 25.81 15.6385 24.7692 16.3324C23.2577 17.344 21.188 17.6497 19.3556 17.3421C18.862 17.2592 18.529 16.7919 18.6119 16.2983C18.6948 15.8047 19.1621 15.4717 19.6557 15.5546C21.1334 15.8027 22.7121 15.5287 23.7621 14.8254L23.7638 14.8243C24.4267 14.3824 24.638 13.8895 24.638 13.5121C24.638 13.1349 24.4269 12.6423 23.7646 12.2005C22.7016 11.4955 21.0992 11.2225 19.6258 11.4806C19.1328 11.5669 18.6631 11.2373 18.5767 10.7443C18.4904 10.2513 18.82 9.78163 19.313 9.69527Z" fill="black"/>
</g>
<g id="Group_2">
<path id="Vector (Stroke)_3" fill-rule="evenodd" clip-rule="evenodd" d="M2.29883 4.53416C2.29883 2.32011 4.09187 0.510406 6.32258 0.510406C8.55101 0.510406 10.3463 2.30574 10.3463 4.53416C10.3463 6.71403 8.63068 8.47926 6.47623 8.55732C6.4269 8.5591 6.37754 8.55686 6.32862 8.55061C6.2797 8.55686 6.23034 8.5591 6.18102 8.55732C4.02543 8.47922 2.31438 6.71433 2.29885 4.54063L2.29883 4.53416ZM4.11133 4.53093C4.12145 5.71712 5.03423 6.66823 6.18271 6.74277C6.27921 6.73421 6.37804 6.73421 6.47454 6.74277C7.625 6.66816 8.53383 5.71581 8.53383 4.53416C8.53383 3.30675 7.54999 2.32291 6.32258 2.32291C5.09854 2.32291 4.11307 3.31479 4.11133 4.53093Z" fill="black"/>
<path id="Vector (Stroke)_4" fill-rule="evenodd" clip-rule="evenodd" d="M3.19961 12.2004C4.26265 11.4955 5.86503 11.2225 7.33844 11.4806C7.83144 11.5669 8.30111 11.2373 8.38747 10.7443C8.47383 10.2513 8.14419 9.78163 7.65119 9.69527C5.81414 9.37345 3.71946 9.68027 2.19667 10.6907L2.19667 10.6907L2.19504 10.6918C1.1542 11.3857 0.513672 12.3912 0.513672 13.5121C0.513672 14.6327 1.15386 15.638 2.19422 16.3318C3.7058 17.3439 5.77586 17.6498 7.60861 17.3421C8.10221 17.2592 8.43518 16.7919 8.35231 16.2983C8.26944 15.8047 7.80212 15.4717 7.30852 15.5546C5.83077 15.8027 4.25208 15.5287 3.20207 14.8254L3.20043 14.8243C2.53752 14.3824 2.32617 13.8895 2.32617 13.5121C2.32617 13.1349 2.53735 12.6422 3.19961 12.2004Z" fill="black"/>
</g>
<g id="Group_3">
<path id="Vector (Stroke)_5" fill-rule="evenodd" clip-rule="evenodd" d="M13.3914 11.3492C12.164 11.3492 11.1802 12.333 11.1802 13.5604C11.1802 14.7421 12.089 15.6944 13.2395 15.769C13.3373 15.7603 13.4376 15.7605 13.5354 15.7694C14.6745 15.7041 15.5925 14.7498 15.6027 13.5572C15.6009 12.341 14.6155 11.3492 13.3914 11.3492ZM9.36768 13.5604C9.36768 11.332 11.163 9.53665 13.3914 9.53665C15.6221 9.53665 17.4152 11.3464 17.4152 13.5604V13.5669H17.4152C17.3997 15.7347 15.693 17.521 13.5264 17.5838C13.4793 17.5851 13.4321 17.5828 13.3854 17.5769C13.3365 17.5831 13.2871 17.5853 13.2378 17.5836C11.0833 17.5055 9.36768 15.7403 9.36768 13.5604Z" fill="black"/>
<path id="Vector (Stroke)_6" fill-rule="evenodd" clip-rule="evenodd" d="M13.5046 18.6173C14.9166 18.6173 16.3772 18.9689 17.5191 19.7301C18.5599 20.424 19.2004 21.4295 19.2004 22.5504C19.2004 23.6712 18.5601 24.6765 17.5195 25.3704C16.3728 26.137 14.9127 26.4926 13.5001 26.4926C12.0876 26.4926 10.6274 26.137 9.48078 25.3704C8.44017 24.6765 7.7998 23.6712 7.7998 22.5504C7.7998 21.4295 8.44033 20.424 9.48117 19.7301L9.48335 19.7287L9.48335 19.7287C10.63 18.969 12.0925 18.6173 13.5046 18.6173ZM10.4855 21.2389C9.82343 21.6807 9.6123 22.1732 9.6123 22.5504C9.6123 22.9278 9.82365 23.4207 10.4866 23.8626L10.4877 23.8633C11.2742 24.3893 12.3634 24.6801 13.5001 24.6801C14.6369 24.6801 15.726 24.3893 16.5126 23.8633L16.5137 23.8626C17.1766 23.4207 17.3879 22.9278 17.3879 22.5504C17.3879 22.173 17.1766 21.6801 16.5137 21.2382C15.7342 20.7186 14.6453 20.4298 13.5046 20.4298C12.3648 20.4298 11.2721 20.7182 10.4855 21.2389Z" fill="black"/>
</g>
</g>
</g>
</svg>
