<svg width="32" height="37" viewBox="0 0 32 37" fill="none" xmlns="http://www.w3.org/2000/svg">
<g id="Component 5">
<path id="Vector (Stroke)" fill-rule="evenodd" clip-rule="evenodd" d="M0.397461 35.0205C0.397461 34.3391 0.94128 33.7867 1.61211 33.7867H30.7638C31.4346 33.7867 31.9784 34.3391 31.9784 35.0205C31.9784 35.7019 31.4346 36.2543 30.7638 36.2543H1.61211C0.94128 36.2543 0.397461 35.7019 0.397461 35.0205Z" fill="black"/>
<path id="Vector (Stroke)_2" fill-rule="evenodd" clip-rule="evenodd" d="M0.397461 14.2614C0.397461 12.6752 1.67007 11.3826 3.23165 11.3826H5.82287C7.38445 11.3826 8.65706 12.6752 8.65706 14.2614V28.4418C8.65706 30.028 7.38445 31.3207 5.82287 31.3207H3.23165C1.67007 31.3207 0.397461 30.028 0.397461 28.4418V14.2614ZM3.23165 13.8502C3.01174 13.8502 2.82677 14.038 2.82677 14.2614V28.4418C2.82677 28.6652 3.01174 28.8531 3.23165 28.8531H5.82287C6.04278 28.8531 6.22776 28.6652 6.22776 28.4418V14.2614C6.22776 14.038 6.04278 13.8502 5.82287 13.8502H3.23165Z" fill="black"/>
<path id="Vector (Stroke)_3" fill-rule="evenodd" clip-rule="evenodd" d="M12.0566 9.0113C12.0566 7.42511 13.3293 6.13245 14.8908 6.13245H17.4821C19.0436 6.13245 20.3162 7.42511 20.3162 9.0113V28.4394C20.3162 30.0256 19.0436 31.3183 17.4821 31.3183H14.8908C13.3293 31.3183 12.0566 30.0256 12.0566 28.4394V9.0113ZM14.8908 8.60003C14.6709 8.60003 14.4859 8.78792 14.4859 9.0113V28.4394C14.4859 28.6628 14.6709 28.8507 14.8908 28.8507H17.4821C17.702 28.8507 17.8869 28.6628 17.8869 28.4394V9.0113C17.8869 8.78792 17.702 8.60003 17.4821 8.60003H14.8908Z" fill="black"/>
<path id="Vector (Stroke)_4" fill-rule="evenodd" clip-rule="evenodd" d="M23.7163 3.76447C23.7163 2.17828 24.9889 0.88562 26.5505 0.88562H29.1417C30.7033 0.88562 31.9759 2.17828 31.9759 3.76447V28.4404C31.9759 30.0265 30.7033 31.3192 29.1417 31.3192H26.5505C24.9889 31.3192 23.7163 30.0265 23.7163 28.4404V3.76447ZM26.5505 3.35321C26.3306 3.35321 26.1456 3.5411 26.1456 3.76447V28.4404C26.1456 28.6637 26.3306 28.8516 26.5505 28.8516H29.1417C29.3616 28.8516 29.5466 28.6637 29.5466 28.4404V3.76447C29.5466 3.5411 29.3616 3.35321 29.1417 3.35321H26.5505Z" fill="black"/>
</g>
</svg>
