<svg width="21" height="21" viewBox="0 0 21 21" fill="none" xmlns="http://www.w3.org/2000/svg">
<g id="vuesax/linear/task">
<g id="task">
<path id="Vector (Stroke)" fill-rule="evenodd" clip-rule="evenodd" d="M8.67725 18.3125C8.67725 17.881 9.02702 17.5313 9.4585 17.5313H19.8752C20.3066 17.5313 20.6564 17.881 20.6564 18.3125C20.6564 18.744 20.3066 19.0938 19.8752 19.0938H9.4585C9.02702 19.0938 8.67725 18.744 8.67725 18.3125Z" fill="black"/>
<path id="Vector (Stroke)_2" fill-rule="evenodd" clip-rule="evenodd" d="M8.67725 11.0208C8.67725 10.5894 9.02702 10.2396 9.4585 10.2396H19.8752C20.3066 10.2396 20.6564 10.5894 20.6564 11.0208C20.6564 11.4523 20.3066 11.8021 19.8752 11.8021H9.4585C9.02702 11.8021 8.67725 11.4523 8.67725 11.0208Z" fill="black"/>
<path id="Vector (Stroke)_3" fill-rule="evenodd" clip-rule="evenodd" d="M8.67725 3.72917C8.67725 3.2977 9.02702 2.94792 9.4585 2.94792H19.8752C20.3066 2.94792 20.6564 3.2977 20.6564 3.72917C20.6564 4.16064 20.3066 4.51042 19.8752 4.51042H9.4585C9.02702 4.51042 8.67725 4.16064 8.67725 3.72917Z" fill="black"/>
<path id="Vector (Stroke)_4" fill-rule="evenodd" clip-rule="evenodd" d="M5.84409 1.09341C6.14919 1.3985 6.14919 1.89316 5.84409 2.19826L2.71909 5.32326C2.414 5.62836 1.91934 5.62836 1.61424 5.32326L0.572573 4.28159C0.267476 3.9765 0.267476 3.48184 0.572573 3.17674C0.87767 2.87164 1.37233 2.87164 1.67743 3.17674L2.16667 3.66598L4.73924 1.09341C5.04434 0.78831 5.539 0.78831 5.84409 1.09341Z" fill="black"/>
<path id="Vector (Stroke)_5" fill-rule="evenodd" clip-rule="evenodd" d="M5.84409 8.38507C6.14919 8.69017 6.14919 9.18483 5.84409 9.48993L2.71909 12.6149C2.414 12.92 1.91934 12.92 1.61424 12.6149L0.572573 11.5733C0.267476 11.2682 0.267476 10.7735 0.572573 10.4684C0.87767 10.1633 1.37233 10.1633 1.67743 10.4684L2.16667 10.9576L4.73924 8.38507C5.04434 8.07998 5.539 8.07998 5.84409 8.38507Z" fill="black"/>
<path id="Vector (Stroke)_6" fill-rule="evenodd" clip-rule="evenodd" d="M5.84409 15.6767C6.14919 15.9818 6.14919 16.4765 5.84409 16.7816L2.71909 19.9066C2.414 20.2117 1.91934 20.2117 1.61424 19.9066L0.572573 18.8649C0.267476 18.5598 0.267476 18.0652 0.572573 17.7601C0.87767 17.455 1.37233 17.455 1.67743 17.7601L2.16667 18.2493L4.73924 15.6767C5.04434 15.3716 5.539 15.3716 5.84409 15.6767Z" fill="black"/>
</g>
</g>
</svg>
