<svg width="27" height="21" viewBox="0 0 27 21" fill="none" xmlns="http://www.w3.org/2000/svg">
<path id="Vector" d="M2.4225 21C1.7325 21 1.1565 20.769 0.6945 20.307C0.2315 19.844 0 19.2675 0 18.5775V2.4225C0 1.7325 0.2315 1.1565 0.6945 0.6945C1.1565 0.2315 1.7325 0 2.4225 0H24.5775C25.2675 0 25.8435 0.2315 26.3055 0.6945C26.7685 1.1565 27 1.7325 27 2.4225V18.5775C27 19.2675 26.769 19.8435 26.307 20.3055C25.844 20.7685 25.2675 21 24.5775 21H2.4225ZM2.4225 19.5H24.5775C24.8075 19.5 25.019 19.404 25.212 19.212C25.404 19.019 25.5 18.8075 25.5 18.5775V4.5H1.5V18.5775C1.5 18.8075 1.596 19.019 1.788 19.212C1.981 19.404 2.1925 19.5 2.4225 19.5ZM11.925 14.07L17.7435 8.253C17.8895 8.107 18.0645 8.029 18.2685 8.019C18.4725 8.009 18.6575 8.087 18.8235 8.253C18.9875 8.418 19.0695 8.598 19.0695 8.793C19.0695 8.987 18.987 9.167 18.822 9.333L12.7725 15.381C12.5305 15.623 12.248 15.744 11.925 15.744C11.602 15.744 11.3195 15.623 11.0775 15.381L8.178 12.48C8.032 12.334 7.954 12.159 7.944 11.955C7.934 11.751 8.012 11.566 8.178 11.4C8.343 11.236 8.523 11.154 8.718 11.154C8.912 11.154 9.092 11.2365 9.258 11.4015L11.925 14.07ZM2.4225 19.5H1.5V1.5H2.4225C2.1925 1.5 1.981 1.596 1.788 1.788C1.596 1.981 1.5 2.1925 1.5 2.4225V18.5775C1.5 18.8075 1.596 19.019 1.788 19.212C1.981 19.404 2.1925 19.5 2.4225 19.5Z" fill="black"/>
</svg>
