<svg width="31" height="31" viewBox="0 0 31 31" fill="none" xmlns="http://www.w3.org/2000/svg">
<g clip-path="url(#clip0_2976_6592)">
<path d="M25.5 5.5H5.5C4.125 5.5 3.0125 6.625 3.0125 8L3 23C3 24.375 4.125 25.5 5.5 25.5H25.5C26.875 25.5 28 24.375 28 23V8C28 6.625 26.875 5.5 25.5 5.5ZM25 10.8125L16.1625 16.3375C15.7625 16.5875 15.2375 16.5875 14.8375 16.3375L6 10.8125C5.6875 10.6125 5.5 10.275 5.5 9.9125C5.5 9.075 6.4125 8.575 7.125 9.0125L15.5 14.25L23.875 9.0125C24.5875 8.575 25.5 9.075 25.5 9.9125C25.5 10.275 25.3125 10.6125 25 10.8125Z" fill="white"/>
</g>
<defs>
<clipPath id="clip0_2976_6592">
<rect width="30" height="30" fill="white" transform="translate(0.5 0.5)"/>
</clipPath>
</defs>
</svg>
