<svg width="73" height="30" viewBox="0 0 73 30" fill="none" xmlns="http://www.w3.org/2000/svg">
<path d="M15.7677 24.8891L15.7677 8.95334L19.2525 12.4381C19.7244 12.91 20.4867 12.91 20.9586 12.4381C21.4305 11.9662 21.4305 11.2039 20.9586 10.732L15.4047 5.17814C14.9328 4.70624 14.1705 4.70624 13.6986 5.17814L8.14467 10.732C7.67277 11.2039 7.67277 11.9662 8.14467 12.4381C8.61657 12.91 9.37887 12.91 9.85077 12.4381L13.3477 8.95334L13.3477 24.8891C13.3477 25.5545 13.8922 26.0991 14.5577 26.0991C15.2232 26.0991 15.7677 25.5545 15.7677 24.8891Z" fill="#5CB85C"/>
<path d="M38.2719 22.207V18.991H35.0559V17.391H38.2719V14.207H39.8719V17.391H43.0559V18.991H39.8719V22.207H38.2719ZM47.7824 22.207V20.847L51.0464 17.359C51.6864 16.6764 52.1878 16.127 52.5504 15.711C52.9238 15.2844 53.1904 14.911 53.3504 14.591C53.5211 14.271 53.6064 13.935 53.6064 13.583C53.6064 13.007 53.4304 12.5644 53.0784 12.255C52.7264 11.935 52.2731 11.775 51.7184 11.775C51.1424 11.775 50.6464 11.9404 50.2304 12.271C49.8144 12.591 49.5264 13.0604 49.3664 13.679L47.7024 13.199C47.8304 12.5697 48.0864 12.0257 48.4704 11.567C48.8544 11.0977 49.3238 10.735 49.8784 10.479C50.4438 10.223 51.0518 10.095 51.7024 10.095C52.4598 10.095 53.1211 10.239 53.6864 10.527C54.2518 10.8044 54.6891 11.1937 54.9984 11.695C55.3184 12.1964 55.4784 12.7777 55.4784 13.439C55.4784 13.8764 55.3931 14.303 55.2224 14.719C55.0624 15.1244 54.8118 15.5564 54.4704 16.015C54.1291 16.463 53.6918 16.9697 53.1584 17.535L50.2784 20.607H55.7024V22.207H47.7824ZM58.9129 22.207L68.6089 10.287H70.6249L60.9289 22.207H58.9129ZM60.7369 16.335C60.1503 16.335 59.6223 16.1964 59.1529 15.919C58.6836 15.631 58.3049 15.2524 58.0169 14.783C57.7396 14.3137 57.6009 13.791 57.6009 13.215C57.6009 12.639 57.7396 12.1164 58.0169 11.647C58.3049 11.167 58.6836 10.7884 59.1529 10.511C59.6223 10.2337 60.1503 10.095 60.7369 10.095C61.3236 10.095 61.8516 10.2337 62.3209 10.511C62.7903 10.7884 63.1636 11.167 63.4409 11.647C63.7183 12.1164 63.8569 12.639 63.8569 13.215C63.8569 13.791 63.7183 14.3137 63.4409 14.783C63.1636 15.2524 62.7903 15.631 62.3209 15.919C61.8516 16.1964 61.3236 16.335 60.7369 16.335ZM60.7369 14.879C61.0676 14.879 61.3503 14.799 61.5849 14.639C61.8303 14.479 62.0169 14.271 62.1449 14.015C62.2729 13.759 62.3369 13.4924 62.3369 13.215C62.3369 12.927 62.2729 12.6604 62.1449 12.415C62.0169 12.159 61.8303 11.951 61.5849 11.791C61.3503 11.631 61.0676 11.551 60.7369 11.551C60.4169 11.551 60.1343 11.631 59.8889 11.791C59.6436 11.951 59.4516 12.159 59.3129 12.415C59.1849 12.6604 59.1209 12.927 59.1209 13.215C59.1209 13.4924 59.1849 13.759 59.3129 14.015C59.4516 14.271 59.6436 14.479 59.8889 14.639C60.1343 14.799 60.4169 14.879 60.7369 14.879ZM68.7209 22.399C68.1343 22.399 67.6009 22.2604 67.1209 21.983C66.6516 21.695 66.2783 21.3164 66.0009 20.847C65.7236 20.3777 65.5849 19.855 65.5849 19.279C65.5849 18.703 65.7236 18.1804 66.0009 17.711C66.2783 17.231 66.6516 16.8524 67.1209 16.575C67.6009 16.2977 68.1343 16.159 68.7209 16.159C69.3076 16.159 69.8356 16.2977 70.3049 16.575C70.7743 16.8524 71.1476 17.231 71.4249 17.711C71.7023 18.1804 71.8409 18.703 71.8409 19.279C71.8409 19.855 71.7023 20.3777 71.4249 20.847C71.1476 21.3164 70.7743 21.695 70.3049 21.983C69.8356 22.2604 69.3076 22.399 68.7209 22.399ZM68.7209 20.943C69.0516 20.943 69.3343 20.863 69.5689 20.703C69.8036 20.543 69.9849 20.335 70.1129 20.079C70.2516 19.823 70.3209 19.5564 70.3209 19.279C70.3209 18.991 70.2516 18.7244 70.1129 18.479C69.9849 18.223 69.8036 18.015 69.5689 17.855C69.3343 17.695 69.0516 17.615 68.7209 17.615C68.4009 17.615 68.1183 17.695 67.8729 17.855C67.6276 18.015 67.4356 18.223 67.2969 18.479C67.1689 18.7244 67.1049 18.991 67.1049 19.279C67.1049 19.5564 67.1689 19.823 67.2969 20.079C67.4356 20.335 67.6276 20.543 67.8729 20.703C68.1183 20.863 68.4009 20.943 68.7209 20.943Z" fill="#5CB85C"/>
</svg>
