<svg width="31" height="31" viewBox="0 0 31 31" fill="none" xmlns="http://www.w3.org/2000/svg">
<g clip-path="url(#clip0_2976_6547)">
<path d="M12.9998 24.2499V17.9999H17.9998V24.2499C17.9998 24.9374 18.5623 25.4999 19.2498 25.4999H22.9998C23.6873 25.4999 24.2498 24.9374 24.2498 24.2499V15.4999H26.3748C26.9498 15.4999 27.2248 14.7874 26.7873 14.4124L16.3373 4.9999C15.8623 4.5749 15.1373 4.5749 14.6623 4.9999L4.21226 14.4124C3.78726 14.7874 4.04976 15.4999 4.62476 15.4999H6.74976V24.2499C6.74976 24.9374 7.31226 25.4999 7.99976 25.4999H11.7498C12.4373 25.4999 12.9998 24.9374 12.9998 24.2499Z" fill="white"/>
</g>
<defs>
<clipPath id="clip0_2976_6547">
<rect width="30" height="30" fill="white" transform="translate(0.5 0.5)"/>
</clipPath>
</defs>
</svg>
