<svg width="108" height="108" viewBox="0 0 108 108" fill="none" xmlns="http://www.w3.org/2000/svg">
<path d="M13.5 27C11.025 27 9 29.025 9 31.5V90C9 94.95 13.05 99 18 99H76.5C78.975 99 81 96.975 81 94.5C81 92.025 78.975 90 76.5 90H22.5C20.025 90 18 87.975 18 85.5V31.5C18 29.025 15.975 27 13.5 27ZM90 9H36C31.05 9 27 13.05 27 18V72C27 76.95 31.05 81 36 81H90C94.95 81 99 76.95 99 72V18C99 13.05 94.95 9 90 9ZM81 49.5H67.5V63C67.5 65.475 65.475 67.5 63 67.5C60.525 67.5 58.5 65.475 58.5 63V49.5H45C42.525 49.5 40.5 47.475 40.5 45C40.5 42.525 42.525 40.5 45 40.5H58.5V27C58.5 24.525 60.525 22.5 63 22.5C65.475 22.5 67.5 24.525 67.5 27V40.5H81C83.475 40.5 85.5 42.525 85.5 45C85.5 47.475 83.475 49.5 81 49.5Z" fill="white"/>
</svg>
