<svg width="57" height="48" viewBox="0 0 57 48" fill="none" xmlns="http://www.w3.org/2000/svg">
<path d="M17.8578 19.563C17.0516 19.5575 14.5983 19.5425 13.3966 17.6827C12.7107 16.6212 12.6925 15.5162 12.8113 13.4177C12.9368 11.2196 13.4737 9.00096 14.407 6.82341C15.1594 5.06715 15.6132 4.00723 16.6561 3.32196C17.4947 2.77026 18.5701 2.4541 19.6062 2.4541C20.3904 2.4541 21.1225 2.62799 21.7812 2.97102C23.5108 3.87049 24.0031 5.65758 24.4795 7.38618L24.5113 7.50078C25.322 10.4403 24.7109 12.9237 24.5105 13.7394C24.1748 15.1052 23.8571 16.3951 22.7764 17.5633C21.1051 19.3686 18.8515 19.5638 17.9591 19.5638H17.8578V19.563ZM20.0819 8.57177C19.8777 8.57177 19.433 8.68085 18.7456 9.41275C18.043 10.1628 17.5552 11.4156 17.9765 12.3657C18.1829 12.8249 18.459 13.1055 18.797 13.2019C18.8832 13.2264 18.974 13.2391 19.067 13.2391C19.3226 13.2391 19.5064 13.1466 19.5079 13.145C19.7597 12.9917 19.9639 12.7198 20.1129 12.5C20.5999 11.7839 20.8835 11.2172 20.8956 10.4426C20.9077 9.68228 20.7519 8.80178 20.2755 8.60892C20.215 8.58442 20.1515 8.57256 20.0811 8.57256L20.0819 8.57177Z" fill="#E6E6E6"/>
<path d="M30.088 26.4514C29.2553 26.4514 28.4703 26.1408 27.9894 25.6207C27.6528 25.2571 27.4456 24.7718 27.3715 24.1774L27.224 23.0084C26.2038 14.9361 25.9618 13.0186 26.5094 6.38166C26.6629 4.52028 27.0161 2.41229 28.4658 0.898681C29.005 0.335919 29.694 0 30.3096 0C30.6257 0 30.9153 0.0853628 31.1717 0.253717C32.1253 0.880502 32.0792 2.30638 32.0595 2.91577C32.0126 4.34323 31.9665 5.77069 31.9211 7.19814C31.8984 7.87709 31.9325 8.61374 32.356 8.93069C32.4951 9.03502 32.6547 9.08561 32.843 9.08561C33.3588 9.08561 33.9902 8.70227 34.4213 8.41377C36.6129 6.94759 38.9709 5.75883 41.4295 4.87833C41.8674 4.72183 42.5284 4.5353 43.1954 4.5353C44.0817 4.5353 44.7434 4.87121 45.108 5.50669C45.4891 6.17221 45.4354 7.10567 44.9718 7.885C44.5793 8.54261 43.9857 9.01131 43.4623 9.42548L38.738 13.1617C37.311 14.2912 36.746 15.2634 37.0107 16.1352C37.2641 16.9698 38.2086 17.3745 39.1214 17.7657L39.2387 17.8163C40.8805 18.5229 42.3953 19.4967 43.7407 20.7116C44.5567 21.449 44.8902 22.1746 44.7306 22.8662C44.5445 23.6708 43.7656 24.0731 43.1205 24.1071C43.0804 24.1095 43.0419 24.1103 43.0025 24.1103C42.4036 24.1103 41.8493 23.8803 41.3607 23.6779C40.4033 23.2803 36.38 21.6094 36.38 21.6094C35.5118 21.249 34.77 21.0664 34.1748 21.0664C33.5796 21.0664 33.1069 21.2569 32.8014 21.649C32.4263 22.1295 32.4445 22.7745 32.4634 23.4558C32.4868 24.2715 32.5125 25.1955 31.7888 25.8586C31.3713 26.2412 30.7671 26.4514 30.088 26.4514Z" fill="#E6E6E6"/>
<path d="M11.863 47.7084C9.72582 47.7084 7.27404 47.3733 4.43506 46.9852C2.7834 46.7592 0.965359 46.4011 0.284729 44.9934C-0.12138 44.154 -0.150874 42.8799 0.578913 42.0705C1.02813 41.5726 1.70876 41.3497 2.85524 41.3276C2.91423 41.3268 2.9717 41.326 3.02918 41.326C4.38288 41.326 5.34256 41.6421 6.93297 42.1662C7.37614 42.3124 7.87905 42.4784 8.45456 42.6578C10.1092 43.1755 10.9699 43.3771 11.5242 43.3771C11.7337 43.3771 11.9053 43.3502 12.1186 43.283C12.1852 43.2625 13.7574 42.7566 14.0342 41.4936C14.2603 40.4613 13.5268 39.4338 12.7493 38.9161C11.8562 38.3217 10.7725 38.1012 9.55037 37.8925L9.24711 37.8411C7.21278 37.4965 5.10888 37.1408 3.31126 36.0438C2.41132 35.4944 1.77985 34.8479 1.43575 34.1231C1.30265 33.8425 0.940403 32.5557 1.60364 31.3788C2.13377 30.4383 3.03069 30.0715 3.98131 29.7506C7.05851 28.7097 9.66608 28.4307 9.77573 28.4188C11.7201 28.2173 13.0723 28.0845 14.1061 28.0845C15.1399 28.0845 16.2009 28.1912 16.6947 28.9824C17.097 29.6265 17.0963 30.6319 16.694 31.2706C16.5019 31.5749 16.1759 31.8151 15.0022 32.2151C14.5802 32.3589 14.2422 32.4562 13.9442 32.5415C13.3959 32.6996 12.9997 32.8134 12.468 33.1114C12.0604 33.3406 11.8267 33.5374 11.8101 33.6663C11.7919 33.8062 11.9091 33.9998 12.1564 34.2417C12.5512 34.6266 13.5026 35.4083 15.7895 36.9432C15.8447 36.9804 15.918 37.0302 15.918 37.0302C16.8203 37.6522 18.9325 39.1089 19.3008 41.2794C19.6449 43.3075 18.3933 45.0432 18.1392 45.3704C16.8845 46.9852 14.9493 47.7053 11.863 47.7053V47.7084Z" fill="#E6E6E6"/>
<path d="M28.3836 46.3741C28.2543 46.3741 28.1234 46.3631 27.9949 46.3409C26.5361 46.088 25.6928 44.5689 25.4145 43.3445C25.2603 42.6664 25.2096 41.9748 25.1612 41.3053C25.1166 40.6959 25.075 40.1205 24.9615 39.5538C24.7528 38.5049 24.3989 38.1437 24.2658 38.0078C24.2529 37.9951 24.2423 37.9833 24.2325 37.973C23.8423 37.5596 23.0694 37.1138 22.5014 37.1138C22.385 37.1138 22.2821 37.1328 22.1952 37.1699C21.9448 37.2767 21.8609 37.5319 21.7444 37.9406C21.6249 38.3603 21.476 38.8827 20.9504 39.0914C20.8233 39.1412 20.6879 39.1673 20.5465 39.1673C19.642 39.1673 18.646 38.1137 17.7665 37.1834C16.8121 36.1748 16.2858 35.6184 16.2109 34.8256C16.1572 34.2526 16.4279 33.2915 19.0227 30.9187C21.2309 28.9 22.9378 27.8765 24.0956 27.8765C24.3724 27.8765 24.5637 27.9334 24.684 27.9761C25.3767 28.2242 25.8516 28.7024 26.8378 30.8855L30.2205 38.3698C30.8263 39.7103 31.581 41.3796 31.4094 43.1122C31.2543 44.6882 30.002 46.3749 28.3843 46.3749L28.3836 46.3741ZM23.6827 32.158C23.3303 32.158 23.0089 32.3296 22.8833 32.5849C22.7449 32.867 22.872 33.2109 22.9741 33.4867C22.9771 33.4946 23.3137 34.3435 24.0979 34.6067C24.2265 34.6502 24.349 34.6731 24.4511 34.6731C24.5532 34.6731 24.6363 34.6494 24.69 34.6027C24.8519 34.462 24.8254 34.089 24.7846 33.7799C24.774 33.7009 24.7664 33.6211 24.7596 33.5404C24.7339 33.2614 24.7112 33.0204 24.5645 32.7706C24.4745 32.6165 24.287 32.2956 23.9413 32.1928C23.8612 32.1691 23.7735 32.1565 23.6819 32.1565L23.6827 32.158Z" fill="#E6E6E6"/>
<path d="M34.4276 46.8509C33.6479 46.8509 32.9604 46.5592 32.5422 46.0502C31.9508 45.3302 32.1369 44.539 32.3524 43.6237C32.4931 43.0254 32.6527 42.348 32.6504 41.5252C32.6466 40.2716 32.2654 39.5626 31.6877 38.4893C31.1137 37.4222 30.3983 36.0936 29.7169 33.6813C29.1194 31.5654 29.099 30.541 29.6382 29.7665C30.0821 29.1278 30.8429 28.7611 31.7255 28.7611C32.1339 28.7611 32.549 28.8417 32.9249 28.9942C33.995 29.4282 34.7997 30.3071 35.5098 31.0825L38.2187 34.0393C38.6626 34.5254 38.9409 34.6274 39.0959 34.6274C39.1451 34.6274 39.1905 34.6171 39.2359 34.5958C39.406 34.5159 39.527 34.2725 39.6155 33.8299C39.7373 33.226 39.8144 32.5929 39.8885 31.9804C40.0314 30.805 40.1797 29.5894 40.6455 28.4623C41.221 27.0704 42.6375 25.6611 44.2317 25.6611C44.5675 25.6611 44.8957 25.7252 45.2072 25.8508C46.4785 26.3638 47.1047 27.7312 47.2673 28.8409C47.4836 30.311 47.2401 31.4587 46.9943 32.419C46.6207 33.8797 45.627 37.7605 45.6413 41.3932C45.6436 41.952 45.6693 42.4492 45.692 42.8878C45.7608 44.2141 45.8107 45.1729 45.0673 45.9514C44.5614 46.4818 43.7666 46.8248 43.0413 46.8248C42.6798 46.8248 42.3539 46.7442 42.0718 46.5853C41.4169 46.217 41.2619 45.5783 41.097 44.9025C40.9457 44.2829 40.7748 43.5802 40.1887 42.8459C39.6987 42.231 38.9265 41.5947 38.4819 41.5947C38.4304 41.5947 38.3888 41.6034 38.3541 41.6216C37.8708 41.8745 37.7952 42.5859 37.715 43.3399C37.6946 43.5312 37.6742 43.728 37.6454 43.9169C37.526 44.7105 36.6147 46.4217 35.0515 46.7821C34.8534 46.828 34.6439 46.8509 34.4268 46.8509H34.4276Z" fill="#E6E6E6"/>
<path d="M52.8862 31.9076C52.3961 31.9076 51.9409 31.7709 51.5703 31.5116C50.3565 30.6643 50.3232 28.8591 50.9086 27.5897C51.2315 26.8886 51.7072 26.4973 51.8456 26.3938C52.0233 26.2634 52.6578 25.8445 53.4753 25.8445C53.6734 25.8445 53.8693 25.8698 54.0591 25.9188C55.372 26.2618 56.2908 27.7225 56.1078 29.1752C55.9853 30.1529 55.3546 30.9884 54.3314 31.5282L54.3148 31.5369C53.8618 31.778 53.3672 31.906 52.8862 31.906V31.9076Z" fill="#E6E6E6"/>
<path d="M50.1802 48.0001C50.0078 48.0001 49.8384 47.9708 49.6622 47.9115C48.4355 47.4966 48.1429 45.6044 48.0332 44.8922C47.8184 43.4987 48.0332 42.7447 48.5028 41.0928C48.7554 40.2052 49.0693 39.101 49.4421 37.4807C49.4814 37.3099 49.5177 37.1471 49.5533 36.9914C49.8981 35.4644 50.1061 34.542 50.9841 33.9602C51.4295 33.6662 51.996 33.4971 52.539 33.4971C53.029 33.4971 53.4798 33.6314 53.8428 33.8867C54.4909 34.3412 54.872 35.1079 54.9174 36.0445C55.0172 38.1462 55.1208 40.319 54.6444 42.4333C54.1029 44.8345 52.8203 46.7631 51.1248 47.7242C50.8026 47.9068 50.485 47.9993 50.181 47.9993L50.1802 48.0001Z" fill="#E6E6E6"/>
<path d="M54.9105 22.5438C54.7941 22.5438 54.6776 22.5296 54.5642 22.5027C53.3474 22.2071 53.0728 20.7188 52.8717 19.632L52.8384 19.4525C52.6909 18.6708 52.3491 17.6141 51.5573 17.0197C51.2404 16.7826 50.8275 16.6458 50.4244 16.6458C49.9692 16.6458 49.5812 16.8134 49.3316 17.1169C49.0654 17.441 48.952 17.8939 48.8325 18.3729C48.797 18.5159 48.7599 18.6637 48.7183 18.8092C48.4423 19.7774 47.9242 20.3876 47.2595 20.5267C47.1536 20.5488 47.0455 20.5599 46.9366 20.5599C46.5358 20.5599 46.1932 20.4089 45.9701 20.2951C43.5954 19.0905 42.1639 18.3642 41.7683 16.7288C41.6269 16.1439 41.6609 15.5472 41.8901 14.6019C42.3506 12.697 43.3383 10.8973 47.7095 5.82137C48.5285 4.86973 49.1834 4.19157 50.1605 4.12755C50.2059 4.12438 50.2512 4.1228 50.2959 4.1228C51.2971 4.1228 52.2228 4.81756 53.125 6.24739C55.5307 10.0603 56.8685 14.4896 56.994 19.055C57.0137 19.7727 57.0046 20.5994 56.6446 21.3353C56.2915 22.0577 55.5942 22.543 54.909 22.543L54.9105 22.5438ZM50.1945 10.1875C50.0024 10.1875 49.8051 10.2199 49.6379 10.2776C49.1721 10.4404 48.8053 10.8601 48.7039 11.3454C48.6124 11.7857 48.6956 12.3777 48.9611 12.5223C49.0095 12.5484 49.0632 12.5611 49.1252 12.5611C49.2764 12.5611 49.613 12.4828 50.1681 11.9588C50.6006 11.5502 51.099 10.8009 50.9077 10.457C50.8147 10.2903 50.5409 10.1867 50.193 10.1867L50.1945 10.1875Z" fill="#E6E6E6"/>
<path d="M7.40924 26.6356C4.63378 26.6356 2.86868 26.5383 1.74791 25.1907C0.688397 23.9158 0.751166 22.2394 0.788979 21.2387C1.04081 14.5085 1.63825 9.46024 2.56618 6.23384C3.36176 3.46666 4.2375 2.58853 4.82738 2.16883C5.66985 1.56892 6.57131 1.42902 6.60912 1.42348C6.7944 1.39582 6.98573 1.38159 7.17707 1.38159C8.35002 1.38159 9.59633 1.92143 10.4297 2.79008C11.6987 4.11241 12.0768 6.14136 11.5875 8.99232C11.4295 9.9163 11.1875 10.8292 10.953 11.7113C10.6717 12.772 10.3806 13.8683 10.2452 14.963C10.1121 16.0435 9.98656 18.7261 11.6995 20.2887C12.5556 21.0704 13.6763 21.4347 15.2251 21.4347C16.355 21.4347 17.5347 21.2411 18.6759 21.0538L18.9172 21.0143C19.0495 20.9921 19.1925 20.9811 19.3407 20.9811C20.1287 20.9811 21.0612 21.2972 21.3697 22.0038C21.7388 22.8511 21.0317 23.8462 20.7995 24.1735C19.9169 25.4104 18.176 26.6166 7.6346 26.6356H7.41075H7.40924Z" fill="#E6E6E6"/>
</svg>
