<svg width="31" height="31" viewBox="0 0 31 31" fill="none" xmlns="http://www.w3.org/2000/svg">
<path d="M28 8.77774V22.0563C28 23.4474 27.1071 24.8384 25.7041 25.3443L19.3265 27.7471C18.9439 27.8735 18.5612 28 18.051 28C17.4133 28 16.648 27.7471 16.0102 27.3677C15.7551 27.1148 15.3725 26.8618 15.2449 26.6089H10.398C8.48469 26.6089 6.82653 25.0914 6.82653 23.068V21.8034C6.82653 21.2975 7.20918 20.7917 7.84694 20.7917C8.48469 20.7917 8.86735 21.171 8.86735 21.8034V23.068C8.86735 23.9532 9.63265 24.5855 10.398 24.5855H14.6071V6.37496H10.398C9.5051 6.37496 8.86735 7.00727 8.86735 7.89251V9.15713C8.86735 9.66298 8.48469 10.1688 7.84694 10.1688C7.20918 10.1688 6.82653 9.66298 6.82653 9.15713V7.89251C6.82653 5.99557 8.35714 4.35157 10.398 4.35157H15.2449C15.5 4.09864 15.7551 3.84572 16.0102 3.59279C17.0306 2.96048 18.1786 2.83402 19.3265 3.21341L25.7041 5.61619C26.9796 5.99557 28 7.38666 28 8.77774Z" fill="white"/>
<path d="M6.57143 19.0212C6.31633 19.0212 6.06122 18.8947 5.93367 18.7683L3.38265 16.239C3.2551 16.1126 3.2551 15.9861 3.12755 15.9861C3.12755 15.8596 3 15.7332 3 15.6067C3 15.4802 3 15.3538 3.12755 15.2273C3.12755 15.1009 3.2551 14.9744 3.38265 14.9744L5.93367 12.4451C6.31633 12.0658 6.95408 12.0658 7.33673 12.4451C7.71939 12.8245 7.71939 13.4568 7.33673 13.8362L6.44388 14.7215H11.6735C12.1837 14.7215 12.6939 15.1009 12.6939 15.7332C12.6939 16.3655 12.1837 16.4919 11.6735 16.4919H6.31633L7.20918 17.3772C7.59184 17.7566 7.59184 18.3889 7.20918 18.7683C7.08163 18.8947 6.82653 19.0212 6.57143 19.0212Z" fill="white"/>
</svg>
