<svg width="31" height="31" viewBox="0 0 31 31" fill="none" xmlns="http://www.w3.org/2000/svg">
<path d="M22.2675 13.5175C23 12.785 23 11.6075 23 9.25C23 6.8925 23 5.715 22.2675 4.9825M22.2675 13.5175C21.535 14.25 20.3575 14.25 18 14.25H13C10.6425 14.25 9.465 14.25 8.7325 13.5175M22.2675 4.9825C21.535 4.25 20.3575 4.25 18 4.25H13C10.6425 4.25 9.465 4.25 8.7325 4.9825M8.7325 4.9825C8 5.715 8 6.8925 8 9.25C8 11.6075 8 12.785 8.7325 13.5175M16.75 9.25C16.75 9.58152 16.6183 9.89946 16.3839 10.1339C16.1495 10.3683 15.8315 10.5 15.5 10.5C15.1685 10.5 14.8505 10.3683 14.6161 10.1339C14.3817 9.89946 14.25 9.58152 14.25 9.25C14.25 8.91848 14.3817 8.60054 14.6161 8.36612C14.8505 8.1317 15.1685 8 15.5 8C15.8315 8 16.1495 8.1317 16.3839 8.36612C16.6183 8.60054 16.75 8.91848 16.75 9.25Z" stroke="white" stroke-width="1.5"/>
<path d="M23 8C22.0054 8 21.0516 7.60491 20.3483 6.90165C19.6451 6.19839 19.25 5.24456 19.25 4.25M23 10.5C22.0054 10.5 21.0516 10.8951 20.3483 11.5983C19.6451 12.3016 19.25 13.2554 19.25 14.25M8 8C8.99456 8 9.94839 7.60491 10.6517 6.90165C11.3549 6.19839 11.75 5.24456 11.75 4.25M8 10.5C8.99456 10.5 9.94839 10.8951 10.6517 11.5983C11.3549 12.3016 11.75 13.2554 11.75 14.25M6.75 25.985H9.575C10.8375 25.985 12.1163 26.1175 13.345 26.37C15.5388 26.8207 17.796 26.8707 20.0075 26.5175C21.0925 26.3425 22.1575 26.0737 23.1225 25.6087C23.9925 25.1875 25.0587 24.5963 25.775 23.9325C26.49 23.27 27.235 22.1862 27.7625 21.3387C28.2175 20.6112 27.9975 19.72 27.28 19.1787C26.8768 18.8855 26.3911 18.7275 25.8925 18.7275C25.3939 18.7275 24.9082 18.8855 24.505 19.1787L22.2462 20.885C21.3712 21.5475 20.415 22.1562 19.2762 22.3375C19.1387 22.3587 18.995 22.3788 18.845 22.3963M18.845 22.3963C18.7992 22.4016 18.7534 22.4066 18.7075 22.4112M18.845 22.3963C19.0451 22.3421 19.2285 22.239 19.3787 22.0963C19.5671 21.9333 19.7209 21.7343 19.8311 21.5109C19.9413 21.2875 20.0056 21.0444 20.0203 20.7957C20.035 20.5471 19.9997 20.298 19.9166 20.0633C19.8334 19.8285 19.7041 19.6127 19.5363 19.4287C19.3734 19.2479 19.1836 19.0932 18.9738 18.97C15.4775 16.8837 10.0362 18.4725 6.75 20.8038M18.845 22.3963C18.7998 22.4061 18.7537 22.4111 18.7075 22.4112M18.7075 22.4112C17.9536 22.487 17.1942 22.4887 16.44 22.4163" stroke="white" stroke-width="1.5" stroke-linecap="round"/>
<path d="M6.75 19.875C6.75 18.8395 5.91053 18 4.875 18C3.83947 18 3 18.8395 3 19.875V26.125C3 27.1605 3.83947 28 4.875 28C5.91053 28 6.75 27.1605 6.75 26.125V19.875Z" stroke="white" stroke-width="1.5"/>
</svg>
