<svg width="40" height="40" viewBox="0 0 40 40" fill="none" xmlns="http://www.w3.org/2000/svg">
<g clip-path="url(#clip0_2379_1509)">
<path d="M29.9996 26.6666V18.3333C29.9996 13.2166 27.2663 8.93329 22.4996 7.79996V6.66663C22.4996 5.28329 21.3663 4.16663 19.983 4.16663C18.5996 4.16663 17.4996 5.28329 17.4996 6.66663V7.79996C12.7163 8.93329 9.99964 13.2 9.99964 18.3333V26.6666L7.83297 28.8166C6.78297 29.8666 7.5163 31.6666 8.99964 31.6666H30.9496C32.433 31.6666 33.183 29.8666 32.133 28.8166L29.9996 26.6666ZM19.983 36.6666C21.8163 36.6666 23.3163 35.1666 23.3163 33.3333H16.6496C16.6496 35.1666 18.133 36.6666 19.983 36.6666ZM11.283 7.88329C11.983 7.24996 11.9996 6.16663 11.333 5.49996C10.6996 4.86663 9.6663 4.84996 9.0163 5.46663C6.1663 8.06663 4.19964 11.6 3.5663 15.5666C3.4163 16.5833 4.19964 17.5 5.23297 17.5C6.03297 17.5 6.73297 16.9166 6.8663 16.1166C7.3663 12.8833 8.9663 9.99996 11.283 7.88329ZM30.9996 5.46663C30.333 4.84996 29.2996 4.86663 28.6663 5.49996C27.9996 6.16663 28.033 7.23329 28.7163 7.86663C31.0163 9.98329 32.633 12.8666 33.133 16.1C33.2496 16.9 33.9496 17.4833 34.7663 17.4833C35.783 17.4833 36.583 16.5666 36.4163 15.55C35.783 11.6 33.833 8.08329 30.9996 5.46663Z" fill="#3653B0"/>
</g>
<defs>
<clipPath id="clip0_2379_1509">
<rect width="40" height="40" fill="white"/>
</clipPath>
</defs>
</svg>
