<svg width="24" height="24" viewBox="0 0 24 24" fill="none" xmlns="http://www.w3.org/2000/svg">
<mask id="mask0_5011_22759" style="mask-type:luminance" maskUnits="userSpaceOnUse" x="0" y="0" width="24" height="24">
<path d="M0 0H24V24H0V0Z" fill="white"/>
<path fill-rule="evenodd" clip-rule="evenodd" d="M3.69141 9.97236C3.69141 9.23791 3.98316 8.53354 4.5025 8.01421C5.02183 7.49488 5.72619 7.20313 6.46064 7.20312H17.5376C18.272 7.20312 18.9764 7.49488 19.4957 8.01421C20.015 8.53354 20.3068 9.23791 20.3068 9.97236V14.5877C20.3068 15.3222 20.015 16.0266 19.4957 16.5459C18.9764 17.0652 18.272 17.357 17.5376 17.357H6.46064C5.72619 17.357 5.02183 17.0652 4.5025 16.5459C3.98316 16.0266 3.69141 15.3222 3.69141 14.5877V9.97236ZM6.46064 9.04928C6.21582 9.04928 5.98103 9.14653 5.80792 9.31964C5.63481 9.49275 5.53756 9.72754 5.53756 9.97236V14.5877C5.53756 14.8326 5.63481 15.0673 5.80792 15.2405C5.98103 15.4136 6.21582 15.5108 6.46064 15.5108H17.5376C17.7824 15.5108 18.0172 15.4136 18.1903 15.2405C18.3634 15.0673 18.4606 14.8326 18.4606 14.5877V9.97236C18.4606 9.72754 18.3634 9.49275 18.1903 9.31964C18.0172 9.14653 17.7824 9.04928 17.5376 9.04928H6.46064Z" fill="black"/>
<path fill-rule="evenodd" clip-rule="evenodd" d="M11.9975 14.1252C12.2433 14.1307 12.4878 14.0871 12.7165 13.9968C12.9453 13.9065 13.1537 13.7714 13.3295 13.5995C13.5053 13.4276 13.645 13.2222 13.7404 12.9956C13.8358 12.7689 13.8849 12.5255 13.8849 12.2796C13.8849 12.0336 13.8358 11.7902 13.7404 11.5635C13.645 11.3369 13.5053 11.1315 13.3295 10.9596C13.1537 10.7877 12.9453 10.6526 12.7165 10.5623C12.4878 10.472 12.2433 10.4284 11.9975 10.4339C11.5078 10.4339 11.0383 10.6284 10.692 10.9746C10.3458 11.3208 10.1513 11.7904 10.1513 12.28C10.1513 12.7696 10.3458 13.2392 10.692 13.5854C11.0383 13.9317 11.5078 14.1262 11.9975 14.1262V14.1252ZM20.1233 13.5243C20.069 13.6328 19.9938 13.7295 19.9021 13.8089C19.8104 13.8884 19.7039 13.9489 19.5888 13.9871C19.4737 14.0254 19.3521 14.0405 19.2311 14.0318C19.1101 14.023 18.992 13.9905 18.8836 13.936L18.8818 13.9351L18.8762 13.9323L18.8578 13.9231C18.7565 13.8714 18.6559 13.8185 18.5559 13.7643C18.3593 13.6582 18.0861 13.5059 17.7824 13.324C17.1944 12.9705 16.4199 12.4609 15.8762 11.9172C15.3316 11.3726 14.8913 10.6923 14.5968 10.1791C14.4258 9.88039 14.2675 9.57458 14.1224 9.26248L14.115 9.24586L14.1132 9.24032L14.1113 9.23755L14.9458 8.86832L14.1122 9.23755C14.0199 9.01496 14.0184 8.7651 14.1078 8.54135C14.1973 8.3176 14.3707 8.1377 14.591 8.04008C14.8113 7.94246 15.061 7.93486 15.2869 8.0189C15.5127 8.10294 15.6967 8.27196 15.7996 8.48986V8.49263L15.8042 8.50094L15.8227 8.54063C15.9385 8.78543 16.0638 9.02562 16.1984 9.26063C16.4605 9.71848 16.8067 10.2372 17.1815 10.6129C17.5562 10.9877 18.1664 11.4012 18.7322 11.7419C19.0299 11.92 19.3328 12.0893 19.6405 12.2496L19.6959 12.2782L19.7079 12.2846L19.7107 12.2865M20.1224 13.5252C20.2321 13.3064 20.2503 13.0529 20.1731 12.8206C20.0959 12.5883 19.9296 12.3962 19.7107 12.2865L20.1224 13.5252ZM3.87162 11.0339C3.9813 10.815 4.17343 10.6487 4.40574 10.5715C4.63805 10.4943 4.89152 10.5125 5.11039 10.6222L5.11316 10.624L5.11869 10.6268L5.13716 10.636C5.23828 10.6874 5.3386 10.7403 5.43808 10.7948C5.63562 10.9009 5.90885 11.0532 6.21162 11.2351C6.80054 11.5877 7.57408 12.0972 8.11869 12.6409C8.66239 13.1856 9.10269 13.8668 9.39716 14.3791C9.56823 14.6781 9.72653 14.9842 9.87162 15.2966L9.879 15.3132L9.88177 15.3188L9.88269 15.3216C9.93179 15.4324 9.95857 15.5518 9.9615 15.6731C9.96444 15.7943 9.94347 15.9149 9.8998 16.028C9.85612 16.1411 9.7906 16.2445 9.70697 16.3322C9.62334 16.42 9.52324 16.4905 9.41239 16.5396C9.30153 16.5886 9.18209 16.6154 9.06088 16.6184C8.93968 16.6213 8.81908 16.6003 8.70598 16.5567C8.59288 16.513 8.48949 16.4475 8.40171 16.3638C8.31393 16.2802 8.24348 16.1801 8.19439 16.0692V16.0674L8.19069 16.0582L8.17223 16.0185C8.05649 15.7736 7.93116 15.5335 7.79654 15.2985C7.53346 14.8416 7.18731 14.3219 6.81346 13.9471C6.43777 13.5723 5.82762 13.1579 5.26177 12.8182C4.96407 12.6397 4.66117 12.4701 4.35346 12.3096L4.299 12.2819L4.28608 12.2745L4.28331 12.2736M3.87162 11.0339C3.81717 11.1423 3.78463 11.2604 3.77585 11.3814C3.76708 11.5024 3.78225 11.6239 3.82048 11.739C3.85872 11.8542 3.91927 11.9607 3.99869 12.0524C4.07811 12.1441 4.17482 12.2192 4.28331 12.2736L3.87162 11.0339Z" fill="black"/>
</mask>
<g mask="url(#mask0_5011_22759)">
<path d="M12 24C18.6274 24 24 18.6274 24 12C24 5.37258 18.6274 0 12 0C5.37258 0 0 5.37258 0 12C0 18.6274 5.37258 24 12 24Z" fill="#3653B0"/>
</g>
</svg>
