<svg width="38" height="37" viewBox="0 0 38 37" fill="none" xmlns="http://www.w3.org/2000/svg">
<path d="M28.2507 4.625H9.75065C6.34357 4.625 3.58398 7.36917 3.58398 10.7454V26.2546C3.58398 29.6308 6.34357 32.375 9.75065 32.375H28.2507C31.6577 32.375 34.4173 29.6308 34.4173 26.2546V10.7454C34.4173 7.36917 31.6577 4.625 28.2507 4.625ZM13.6048 11.0538C15.5627 11.0538 17.1661 12.6571 17.1661 14.615C17.1661 16.5729 15.5627 18.1762 13.6048 18.1762C11.6469 18.1762 10.0436 16.5729 10.0436 14.615C10.0436 12.6571 11.6469 11.0538 13.6048 11.0538ZM19.5711 25.6842C19.4323 25.8383 19.2165 25.9308 19.0007 25.9308H8.20898C7.99315 25.9308 7.77732 25.8383 7.63857 25.6842C7.49982 25.53 7.42273 25.3142 7.43815 25.0983C7.70023 22.5083 9.76607 20.4579 12.3561 20.2112C13.1732 20.1342 14.0211 20.1342 14.8382 20.2112C17.4282 20.4579 19.5094 22.5083 19.7561 25.0983C19.7869 25.3142 19.7098 25.53 19.5711 25.6842ZM29.7923 25.8229H26.709C26.0769 25.8229 25.5527 25.2987 25.5527 24.6667C25.5527 24.0346 26.0769 23.5104 26.709 23.5104H29.7923C30.4244 23.5104 30.9486 24.0346 30.9486 24.6667C30.9486 25.2987 30.4244 25.8229 29.7923 25.8229ZM29.7923 19.6562H23.6257C22.9936 19.6562 22.4694 19.1321 22.4694 18.5C22.4694 17.8679 22.9936 17.3438 23.6257 17.3438H29.7923C30.4244 17.3438 30.9486 17.8679 30.9486 18.5C30.9486 19.1321 30.4244 19.6562 29.7923 19.6562ZM29.7923 13.4896H22.084C21.4519 13.4896 20.9277 12.9654 20.9277 12.3333C20.9277 11.7012 21.4519 11.1771 22.084 11.1771H29.7923C30.4244 11.1771 30.9486 11.7012 30.9486 12.3333C30.9486 12.9654 30.4244 13.4896 29.7923 13.4896Z" fill="white"/>
</svg>
