<svg width="31" height="31" viewBox="0 0 31 31" fill="none" xmlns="http://www.w3.org/2000/svg">
<g clip-path="url(#clip0_2976_6556)">
<path d="M26.75 3.2625C26.5875 3.2625 26.425 3.325 26.3125 3.45L25.325 4.4375C25.075 4.6875 24.6875 4.6875 24.4375 4.4375L23.45 3.45C23.2 3.2 22.8125 3.2 22.5625 3.45L21.575 4.4375C21.325 4.6875 20.9375 4.6875 20.6875 4.4375L19.7 3.45C19.45 3.2 19.0625 3.2 18.8125 3.45L17.825 4.4375C17.575 4.6875 17.1875 4.6875 16.9375 4.4375L15.95 3.45C15.7 3.2 15.3125 3.2 15.0625 3.45L14.075 4.4375C13.825 4.6875 13.4375 4.6875 13.1875 4.4375L12.1875 3.4375C11.9375 3.1875 11.55 3.1875 11.3 3.4375L10.3125 4.4375C10.0625 4.6875 9.675 4.6875 9.425 4.4375L8.4375 3.4375C8.1875 3.1875 7.8 3.1875 7.55 3.4375L6.5625 4.4375C6.3125 4.6875 5.925 4.6875 5.675 4.4375L4.6875 3.4375C4.575 3.325 4.4125 3.2625 4.25 3.2625V27.75C4.4125 27.75 4.575 27.6875 4.6875 27.5625L5.675 26.575C5.925 26.325 6.3125 26.325 6.5625 26.575L7.55 27.5625C7.8 27.8125 8.1875 27.8125 8.4375 27.5625L9.425 26.575C9.675 26.325 10.0625 26.325 10.3125 26.575L11.3 27.5625C11.55 27.8125 11.9375 27.8125 12.1875 27.5625L13.175 26.575C13.425 26.325 13.8125 26.325 14.0625 26.575L15.05 27.5625C15.3 27.8125 15.6875 27.8125 15.9375 27.5625L16.925 26.575C17.175 26.325 17.5625 26.325 17.8125 26.575L18.8 27.5625C19.05 27.8125 19.4375 27.8125 19.6875 27.5625L20.675 26.575C20.925 26.325 21.3125 26.325 21.5625 26.575L22.55 27.5625C22.8 27.8125 23.1875 27.8125 23.4375 27.5625L24.425 26.575C24.675 26.325 25.0625 26.325 25.3125 26.575L26.3 27.5625C26.425 27.6875 26.5875 27.75 26.7375 27.75V3.2625H26.75ZM21.75 21.75H9.25C8.5625 21.75 8 21.1875 8 20.5C8 19.8125 8.5625 19.25 9.25 19.25H21.75C22.4375 19.25 23 19.8125 23 20.5C23 21.1875 22.4375 21.75 21.75 21.75ZM21.75 16.75H9.25C8.5625 16.75 8 16.1875 8 15.5C8 14.8125 8.5625 14.25 9.25 14.25H21.75C22.4375 14.25 23 14.8125 23 15.5C23 16.1875 22.4375 16.75 21.75 16.75ZM21.75 11.75H9.25C8.5625 11.75 8 11.1875 8 10.5C8 9.8125 8.5625 9.25 9.25 9.25H21.75C22.4375 9.25 23 9.8125 23 10.5C23 11.1875 22.4375 11.75 21.75 11.75Z" fill="white"/>
</g>
<defs>
<clipPath id="clip0_2976_6556">
<rect width="30" height="30" fill="white" transform="translate(0.5 0.5)"/>

</clipPath>
</defs>
</svg>
