<svg width="24" height="25" viewBox="0 0 24 25" fill="none" xmlns="http://www.w3.org/2000/svg">
<g clip-path="url(#clip0_3098_6920)">
<path d="M15.4996 14.5001H14.7096L14.4296 14.2301C15.6296 12.8301 16.2496 10.9201 15.9096 8.89014C15.4396 6.11014 13.1196 3.89014 10.3196 3.55014C6.08965 3.03014 2.52965 6.59014 3.04965 10.8201C3.38965 13.6201 5.60965 15.9401 8.38965 16.4101C10.4196 16.7501 12.3296 16.1301 13.7296 14.9301L13.9996 15.2101V16.0001L18.2496 20.2501C18.6596 20.6601 19.3296 20.6601 19.7396 20.2501C20.1496 19.8401 20.1496 19.1701 19.7396 18.7601L15.4996 14.5001ZM9.49965 14.5001C7.00965 14.5001 4.99965 12.4901 4.99965 10.0001C4.99965 7.51014 7.00965 5.50014 9.49965 5.50014C11.9896 5.50014 13.9996 7.51014 13.9996 10.0001C13.9996 12.4901 11.9896 14.5001 9.49965 14.5001Z" fill="#333333"/>
</g>
<defs>
<clipPath id="clip0_3098_6920">
<rect width="24" height="24" fill="white" transform="translate(0 0.5)"/>
</clipPath>
</defs>
</svg>
