<svg width="31" height="31" viewBox="0 0 31 31" fill="none" xmlns="http://www.w3.org/2000/svg">
<g clip-path="url(#clip0_5333_19733)">
<path d="M24.7871 16.725C24.8371 16.325 24.8746 15.925 24.8746 15.5C24.8746 15.075 24.8371 14.675 24.7871 14.275L27.4246 12.2125C27.6621 12.025 27.7246 11.6875 27.5746 11.4125L25.0746 7.0875C24.9246 6.8125 24.5871 6.7125 24.3121 6.8125L21.1996 8.0625C20.5496 7.5625 19.8496 7.15 19.0871 6.8375L18.6121 3.525C18.5746 3.225 18.3121 3 17.9996 3H12.9996C12.6871 3 12.4246 3.225 12.3871 3.525L11.9121 6.8375C11.1496 7.15 10.4496 7.575 9.79956 8.0625L6.68706 6.8125C6.39956 6.7 6.07456 6.8125 5.92456 7.0875L3.42456 11.4125C3.26206 11.6875 3.33706 12.025 3.57456 12.2125L6.21206 14.275C6.16206 14.675 6.12456 15.0875 6.12456 15.5C6.12456 15.9125 6.16206 16.325 6.21206 16.725L3.57456 18.7875C3.33706 18.975 3.27456 19.3125 3.42456 19.5875L5.92456 23.9125C6.07456 24.1875 6.41206 24.2875 6.68706 24.1875L9.79956 22.9375C10.4496 23.4375 11.1496 23.85 11.9121 24.1625L12.3871 27.475C12.4246 27.775 12.6871 28 12.9996 28H17.9996C18.3121 28 18.5746 27.775 18.6121 27.475L19.0871 24.1625C19.8496 23.85 20.5496 23.425 21.1996 22.9375L24.3121 24.1875C24.5996 24.3 24.9246 24.1875 25.0746 23.9125L27.5746 19.5875C27.7246 19.3125 27.6621 18.975 27.4246 18.7875L24.7871 16.725ZM15.4996 19.875C13.0871 19.875 11.1246 17.9125 11.1246 15.5C11.1246 13.0875 13.0871 11.125 15.4996 11.125C17.9121 11.125 19.8746 13.0875 19.8746 15.5C19.8746 17.9125 17.9121 19.875 15.4996 19.875Z" fill="white"/>
</g>
<defs>
<clipPath id="clip0_5333_19733">
<rect width="30" height="30" fill="white" transform="translate(0.5 0.5)"/>
</clipPath>
</defs>
</svg>
