<svg width="37" height="37" viewBox="0 0 37 37" fill="none" xmlns="http://www.w3.org/2000/svg">
<path d="M24.9602 3.08203H12.0411C6.4294 3.08203 3.08398 6.42745 3.08398 12.0391V24.9429C3.08398 30.57 6.4294 33.9154 12.0411 33.9154H24.9448C30.5565 33.9154 33.9019 30.57 33.9019 24.9583V12.0391C33.9173 6.42745 30.5719 3.08203 24.9602 3.08203ZM11.7636 27.9799C11.7636 28.612 11.2394 29.1362 10.6073 29.1362C9.97523 29.1362 9.45107 28.612 9.45107 27.9799V24.7887C9.45107 24.1566 9.97523 23.6324 10.6073 23.6324C11.2394 23.6324 11.7636 24.1566 11.7636 24.7887V27.9799ZM19.6569 27.9799C19.6569 28.612 19.1327 29.1362 18.5007 29.1362C17.8686 29.1362 17.3444 28.612 17.3444 27.9799V21.582C17.3444 20.9499 17.8686 20.4258 18.5007 20.4258C19.1327 20.4258 19.6569 20.9499 19.6569 21.582V27.9799ZM27.5502 27.9799C27.5502 28.612 27.0261 29.1362 26.394 29.1362C25.7619 29.1362 25.2377 28.612 25.2377 27.9799V18.3908C25.2377 17.7587 25.7619 17.2345 26.394 17.2345C27.0261 17.2345 27.5502 17.7587 27.5502 18.3908V27.9799ZM27.5502 13.5191C27.5502 14.1512 27.0261 14.6754 26.394 14.6754C25.7619 14.6754 25.2377 14.1512 25.2377 13.5191V12.0237C21.3065 16.0629 16.3886 18.9149 10.8848 20.287C10.7923 20.3179 10.6998 20.3179 10.6073 20.3179C10.0832 20.3179 9.62065 19.9633 9.4819 19.4391C9.32773 18.8224 9.69773 18.1904 10.3298 18.0362C15.5252 16.7412 20.1502 14.0124 23.8194 10.1583H21.8923C21.2602 10.1583 20.7361 9.63412 20.7361 9.00203C20.7361 8.36995 21.2602 7.84578 21.8923 7.84578H26.4094C26.4711 7.84578 26.5173 7.87662 26.579 7.87662C26.6561 7.89203 26.7331 7.89203 26.8102 7.92286C26.8873 7.9537 26.949 7.99995 27.0261 8.0462C27.0723 8.07703 27.1186 8.09245 27.1648 8.12328C27.1802 8.1387 27.1802 8.15411 27.1957 8.15411C27.2573 8.21578 27.3036 8.27745 27.3498 8.33911C27.3961 8.40078 27.4423 8.44703 27.4577 8.5087C27.4886 8.57036 27.4886 8.63203 27.504 8.70912C27.5194 8.7862 27.5502 8.86328 27.5502 8.95578C27.5502 8.9712 27.5656 8.98662 27.5656 9.00203V13.5191H27.5502Z" fill="white"/>
</svg>
