<svg width="85" height="85" viewBox="0 0 85 85" fill="white" xmlns="http://www.w3.org/2000/svg">
<path d="M77.9167 53.125C77.9167 66.8312 66.8312 77.9167 53.125 77.9167L56.8437 71.7187" stroke="white" stroke-width="1.5" stroke-linecap="round" stroke-linejoin="round"/>
<path d="M7.08301 31.8749C7.08301 18.1687 18.1684 7.08325 31.8747 7.08325L28.1559 13.2812" stroke="white" stroke-width="1.5" stroke-linecap="round" stroke-linejoin="round"/>
<path d="M77.9167 14.8749V15.2645C77.9167 16.2562 77.1375 17.0353 76.1458 17.0353H44.2708C43.2792 17.0353 42.5 16.2562 42.5 15.2645V14.8749C42.5 8.64158 44.0583 7.08325 50.3625 7.08325H70.0542C76.3583 7.08325 77.9167 8.64158 77.9167 14.8749Z" fill="white"/>
<path d="M44.2708 20.5771C43.2792 20.5771 42.5 21.3563 42.5 22.348V25.8896V29.3959C42.5 35.6292 44.0583 37.1876 50.3625 37.1876H70.0542C76.3583 37.1876 77.9167 35.6292 77.9167 29.3959V25.8896V22.348C77.9167 21.3563 77.1375 20.5771 76.1458 20.5771H44.2708Z" fill="white"/>
<path d="M42.4997 55.6042V55.9938C42.4997 56.9854 41.7205 57.7646 40.7288 57.7646H8.85384C7.86217 57.7646 7.08301 56.9854 7.08301 55.9938V55.6042C7.08301 49.3708 8.64134 47.8125 14.9455 47.8125H34.6372C40.9413 47.8125 42.4997 49.3708 42.4997 55.6042Z" fill="white"/>
<path d="M8.85384 61.3062C7.86217 61.3062 7.08301 62.0853 7.08301 63.077V66.6187V70.1249C7.08301 76.3582 8.64134 77.9166 14.9455 77.9166H34.6372C40.9413 77.9166 42.4997 76.3582 42.4997 70.1249V66.6187V63.077C42.4997 62.0853 41.7205 61.3062 40.7288 61.3062H8.85384Z" fill="white"/>
</svg>
